<?xml version="1.0" encoding="UTF-8"?>
<!DOCTYPE svg PUBLIC "-//W3C//DTD SVG 1.1//EN"
    "http://www.w3.org/Graphics/SVG/1.1/DTD/svg11.dtd">
<svg xmlns="http://www.w3.org/2000/svg" xmlns:xlink="http://www.w3.org/1999/xlink" version="1.1" width="400.0" height="400.0" font-size="1" viewBox="0 0 400 400"><g><g stroke="rgb(255,0,0)" stroke-opacity="1.0" fill-opacity="0.0" stroke-width="0.1" stroke-linecap="butt" stroke-linejoin="miter" font-size="1.0em" stroke-miterlimit="10.0"><g transform="matrix(100.0,0.0,0.0,100.0,200.0,200.0)"><g fill-opacity="0.0"><g fill-opacity="0.0"><path d="M 1.0000000000000004,-2.0 c -2.0290612532945337e-16,0.5522847498307935 0.4477152501692061,1.0 0.9999999999999994 1.0000000000000004" /></g><path d="M 0.0,0.0 l 4.898587196589413e-16,-2.0 " /></g><g fill-opacity="0.0"><g fill-opacity="0.0"><path d="M 1.9999999999999998,1.0000000000000004 c -0.5522847498307935,-1.690884377745445e-16 -1.0,0.44771525016920616 -1.0000000000000004 0.9999999999999994" /></g><path d="M 0.0,0.0 l 2.0,3.6739403974420594e-16 " /></g><g fill-opacity="0.0"><g fill-opacity="0.0"><path d="M -1.0000000000000004,2.0 c 1.3527075021963558e-16,-0.5522847498307935 -0.4477152501692062,-1.0 -0.9999999999999996 -1.0000000000000004" /></g><path d="M 0.0,0.0 l -2.4492935982947064e-16,2.0 " /></g><g fill-opacity="0.0"><g fill-opacity="0.0"><path d="M -2.0,-1.0 c 0.5522847498307935,1.0145306266472669e-16 1.0,-0.44771525016920627 1.0000000000000002 -0.9999999999999996" /></g><path d="M 0.0,0.0 l -2.0,-1.2246467991473532e-16 " /></g></g></g></g></svg>