<?xml version="1.0" encoding="UTF-8"?>
<!DOCTYPE svg PUBLIC "-//W3C//DTD SVG 1.1//EN"
    "http://www.w3.org/Graphics/SVG/1.1/DTD/svg11.dtd">
<svg xmlns="http://www.w3.org/2000/svg" xmlns:xlink="http://www.w3.org/1999/xlink" version="1.1" width="400.0" height="373.3333333333333" font-size="1" viewBox="0 0 400 373"><g><g stroke="rgb(0,0,0)" stroke-opacity="1.0" fill-opacity="0.0" stroke-width="1.0e-2" stroke-linecap="butt" stroke-linejoin="miter" font-size="1.0em" stroke-miterlimit="10.0"><g transform="matrix(26.4026402640264,0.0,0.0,26.4026402640264,213.33333333333326,266.6666666666665)"><g fill-opacity="0.0"><g stroke="rgb(0,128,0)" stroke-opacity="1.0" fill-opacity="0.0" stroke-width="0.1"><path d="M 0.9999999999999997,2.0 c -3.1289907327441414e-16,0.5522847498307931 0.44771525016920577,0.9999999999999999 0.9999999999999989 1.0000000000000004c 1.3657095872137808,8.573736726523546e-16 2.616439429206785,-0.5645779665014641 3.52593073135266 -1.474069268647338c 0.9094913021458754,-0.9094913021458735 1.474069268647342,-2.1602211441388772 1.4740692686473433 -3.5259307313526578l 6.123233995736766e-17,-1.0 l 6.123233995736766e-17,-1.0 l 6.123233995736766e-17,-1.0 l 6.123233995736766e-17,-1.0 l 6.123233995736766e-17,-1.0 l 6.123233995736766e-17,-1.0 l 6.123233995736761e-17,-0.9999999999999991 l 6.123233995736766e-17,-1.0 l -1.0,-6.123233995736766e-17 l -1.0,-6.123233995736766e-17 l -1.0,-6.123233995736766e-17 l -1.0,-6.123233995736766e-17 l -1.0,-6.123233995736766e-17 l -1.0,-6.123233995736766e-17 l -1.0,-6.123233995736766e-17 l -1.0,-6.123233995736766e-17 l -1.0,-6.123233995736766e-17 l -1.0,-6.123233995736766e-17 l -1.0,-6.123233995736766e-17 l -1.0,-6.123233995736766e-17 l -1.0,-6.123233995736766e-17 l -1.0,-6.123233995736766e-17 l -1.0,-6.123233995736766e-17 l -6.123233995736766e-17,1.0 l -6.123233995736761e-17,0.9999999999999991 l -6.123233995736766e-17,1.0 l -6.123233995736766e-17,1.0 l -6.123233995736766e-17,1.0 l -6.123233995736766e-17,1.0 l -6.123233995736766e-17,1.0 l -6.123233995736766e-17,1.0 c 1.6330705261875919e-16,1.6399595862506842 0.6748350003801383,3.1409100254585516 1.7669624874607937 4.233037512539206c 1.092127487080655,1.0921274870806557 2.5930779262885233,1.7669624874607943 4.233037512539207 1.7669624874607943c 1.1011219423600207,-2.0234097664340165e-15 1.9999999999999958,-0.8988780576399784 1.9999999999999964 -1.9999999999999993" /><path d="M 1.9999999999999996,2.0000000000000004 c 2.1835305337762985,1.3707904012826504e-15 4.000000000000001,-1.8164694662236982 4.000000000000003 -3.999999999999996l 6.123233995736766e-17,-1.0 l 6.123233995736766e-17,-1.0 l 6.123233995736766e-17,-1.0 l 6.123233995736766e-17,-1.0 l 6.123233995736766e-17,-1.0 l 6.123233995736766e-17,-1.0 l 6.123233995736761e-17,-0.9999999999999991 l -1.0,-6.123233995736766e-17 l -1.0,-6.123233995736766e-17 l -1.0,-6.123233995736766e-17 l -1.0,-6.123233995736766e-17 l -1.0,-6.123233995736766e-17 l -1.0,-6.123233995736766e-17 l -1.0,-6.123233995736766e-17 l -1.0,-6.123233995736766e-17 l -1.0,-6.123233995736766e-17 l -1.0,-6.123233995736766e-17 l -1.0,-6.123233995736766e-17 l -1.0,-6.123233995736766e-17 l -1.0,-6.123233995736766e-17 l -6.123233995736761e-17,0.9999999999999991 l -6.123233995736766e-17,1.0 l -6.123233995736766e-17,1.0 l -6.123233995736766e-17,1.0 l -6.123233995736766e-17,1.0 l -6.123233995736766e-17,1.0 l -6.123233995736766e-17,1.0 c 1.3599725828059055e-16,1.3657095872137803 0.5645779665014662,2.616439429206784 1.4740692686473411 3.5259307313526587c 0.9094913021458747,0.9094913021458755 2.160221144138879,1.4740692686473416 3.525930731352659 1.4740692686473416c 0.5522847498307925,-1.0148724802132932e-15 0.9999999999999979,-0.44771525016920727 0.9999999999999982 -0.9999999999999998" /><path d="M 1.9999999999999998,1.0000000000000004 c 1.6452419183154008,1.0328602208800887e-15 3.0000000000000004,-1.3547580816845968 3.0000000000000018 -2.9999999999999973l 6.123233995736766e-17,-1.0 l 6.123233995736766e-17,-1.0 l 6.123233995736766e-17,-1.0 l 6.123233995736766e-17,-1.0 l 6.123233995736766e-17,-1.0 l 6.123233995736766e-17,-1.0 l -1.0,-6.123233995736766e-17 l -1.0,-6.123233995736766e-17 l -1.0,-6.123233995736766e-17 l -1.0,-6.123233995736766e-17 l -1.0,-6.123233995736766e-17 l -1.0,-6.123233995736766e-17 l -1.0,-6.123233995736766e-17 l -1.0,-6.123233995736766e-17 l -1.0,-6.123233995736766e-17 l -1.0,-6.123233995736766e-17 l -1.0,-6.123233995736766e-17 l -6.123233995736766e-17,1.0 l -6.123233995736766e-17,1.0 l -6.123233995736766e-17,1.0 l -6.123233995736766e-17,1.0 l -6.123233995736766e-17,1.0 l -6.123233995736766e-17,1.0 c 2.174358068111353e-16,2.1835305337762976 1.816469466223703,4.0 3.9999999999999996 4.0" /><path d="M 2.0,4.898587196589413e-16 c 1.101121942360023,6.912691926585467e-16 2.0000000000000004,-0.8988780576399756 2.0000000000000013 -1.9999999999999982l 6.123233995736766e-17,-1.0 l 6.123233995736766e-17,-1.0 l 6.123233995736766e-17,-1.0 l 6.123233995736766e-17,-1.0 l 6.123233995736766e-17,-1.0 l -1.0,-6.123233995736766e-17 l -1.0,-6.123233995736766e-17 l -1.0,-6.123233995736766e-17 l -1.0,-6.123233995736766e-17 l -1.0,-6.123233995736766e-17 l -1.0,-6.123233995736766e-17 l -1.0,-6.123233995736766e-17 l -1.0,-6.123233995736766e-17 l -1.0,-6.123233995736766e-17 l -6.123233995736766e-17,1.0 l -6.123233995736766e-17,1.0 l -6.123233995736766e-17,1.0 l -6.123233995736766e-17,1.0 l -6.123233995736766e-17,1.0 c 1.6383306684964313e-16,1.6452419183154006 1.3547580816845997,3.0 3.0 3.0" /><path d="M 2.0,-0.9999999999999996 c 0.5522847498307935,3.467167608293233e-16 1.0000000000000002,-0.4477152501692058 1.0000000000000007 -0.9999999999999991l 6.123233995736766e-17,-1.0 l 6.123233995736766e-17,-1.0 l 6.123233995736766e-17,-1.0 l 6.123233995736766e-17,-1.0 l -1.0,-6.123233995736766e-17 l -1.0,-6.123233995736766e-17 l -1.0,-6.123233995736766e-17 l -1.0,-6.123233995736766e-17 l -1.0,-6.123233995736766e-17 l -1.0,-6.123233995736766e-17 l -1.0,-6.123233995736766e-17 l -6.123233995736766e-17,1.0 l -6.123233995736766e-17,1.0 l -6.123233995736766e-17,1.0 l -6.123233995736766e-17,1.0 c 1.0964964044740254e-16,1.101121942360023 0.8988780576399773,1.9999999999999998 1.9999999999999998 2.0" /><path d="M 2.0000000000000004,-1.9999999999999993 l 6.123233995736766e-17,-1.0 l 6.123233995736766e-17,-1.0 l 6.123233995736766e-17,-1.0 l -1.0,-6.123233995736766e-17 l -1.0,-6.123233995736766e-17 l -1.0,-6.123233995736766e-17 l -1.0,-6.123233995736766e-17 l -1.0,-6.123233995736766e-17 l -6.123233995736766e-17,1.0 l -6.123233995736766e-17,1.0 l -6.123233995736766e-17,1.0 c 5.4996473972480494e-17,0.5522847498307935 0.44771525016920655,0.9999999999999999 0.9999999999999998 1.0" /><path d="M 1.0000000000000007,-1.9999999999999998 l 6.123233995736766e-17,-1.0 l 6.123233995736766e-17,-1.0 l -1.0,-6.123233995736766e-17 l -1.0,-6.123233995736766e-17 l -1.0,-6.123233995736766e-17 l -6.123233995736766e-17,1.0 l -6.123233995736766e-17,1.0 " /><path d="M 1.2246467991473532e-16,-2.0 l 6.123233995736766e-17,-1.0 l -1.0,-6.123233995736766e-17 l -6.123233995736766e-17,1.0 " /></g><g stroke="rgb(0,128,0)" stroke-opacity="1.0" fill-opacity="0.0" stroke-width="0.1"><g fill-opacity="0.0"><path d="M 1.0000000000000004,-1.9999999999999998 c -2.0290612532945337e-16,0.5522847498307935 0.4477152501692061,1.0 0.9999999999999994 1.0000000000000004" /><path d="M 0.0,0.0 l 4.898587196589413e-16,-2.0 " /></g><g fill-opacity="0.0"><path d="M 1.9999999999999998,1.0000000000000004 c -0.5522847498307935,-1.690884377745445e-16 -1.0,0.44771525016920616 -1.0000000000000004 0.9999999999999994" /><path d="M 0.0,0.0 l 2.0,3.6739403974420594e-16 " /></g><g fill-opacity="0.0"><path d="M -1.0000000000000002,1.9999999999999998 c 1.3527075021963558e-16,-0.5522847498307935 -0.4477152501692062,-1.0 -0.9999999999999996 -1.0000000000000004" /><path d="M 0.0,0.0 l -2.4492935982947064e-16,2.0 " /></g><g fill-opacity="0.0"><path d="M -2.0,-1.0000000000000002 c 0.5522847498307935,1.0145306266472669e-16 1.0,-0.44771525016920627 1.0000000000000002 -0.9999999999999996" /><path d="M 0.0,0.0 l -2.0,-1.2246467991473532e-16 " /></g></g></g></g></g></g></svg>