<?xml version="1.0" encoding="UTF-8"?>
<!DOCTYPE svg PUBLIC "-//W3C//DTD SVG 1.1//EN"
    "http://www.w3.org/Graphics/SVG/1.1/DTD/svg11.dtd">
<svg xmlns="http://www.w3.org/2000/svg" xmlns:xlink="http://www.w3.org/1999/xlink" version="1.1" width="400.0" height="359.9999999999999" font-size="1" viewBox="0 0 400 360"><g><g stroke="rgb(0,0,0)" stroke-opacity="1.0" fill-opacity="0.0" stroke-width="1.0e-2" stroke-linecap="butt" stroke-linejoin="miter" font-size="1.0em" stroke-miterlimit="10.0"><g transform="matrix(26.40264026402639,0.0,0.0,26.40264026402639,213.33333333333331,253.3333333333332)"><g fill-opacity="0.0"><g stroke="rgb(0,128,0)" stroke-opacity="1.0" fill-opacity="0.0" stroke-width="0.1"><path d="M 0.9999999999999997,2.0 c -3.1289907327441414e-16,0.5522847498307931 0.44771525016920577,0.9999999999999999 0.9999999999999989 1.0000000000000004c 1.3657095872137808,8.573736726523546e-16 2.616439429206785,-0.5645779665014641 3.52593073135266 -1.474069268647338c 0.9094913021458754,-0.9094913021458735 1.474069268647342,-2.1602211441388772 1.4740692686473433 -3.5259307313526578c 4.930380657631324e-32,-2.0644469805927272 -0.8307365986918178,-3.9274550197976854 -2.201640789447067 -5.298359210552934c -1.370904190755249,-1.3709041907552502 -3.233912229960207,-2.201640789447068 -5.298359210552935 -2.2016407894470684c -2.064446980592727,-1.2641091933961505e-16 -3.927455019797683,0.8307365986918163 -5.298359210552934 2.201640789447066c -1.3709041907552495,1.3709041907552495 -2.2016407894470666,3.2339122299602074 -2.201640789447067 5.298359210552934c 1.6330705261875919e-16,1.6399595862506842 0.6748350003801383,3.1409100254585516 1.7669624874607937 4.233037512539206c 1.092127487080655,1.0921274870806557 2.5930779262885233,1.7669624874607943 4.233037512539207 1.7669624874607943c 1.1011219423600227,2.0227281932731771e-16 2.0,-0.8988780576399766 2.0 -1.999999999999999" /><path d="M 1.9999999999999996,2.0000000000000004 c 2.1835305337762985,1.3707904012826504e-15 4.000000000000001,-1.8164694662236982 4.000000000000003 -3.999999999999996c 3.697785493223493e-32,-1.7865490347984472 -0.7223826110008191,-3.404887469733591 -1.9087475706336146 -4.591252429366386c -1.1863649596327952,-1.186364959632796 -2.804703394567939,-1.9087475706336152 -4.591252429366387 -1.9087475706336152c -1.786549034798447,-1.0939457784928557e-16 -3.40488746973359,0.722382611000818 -4.591252429366386 1.908747570633614c -1.1863649596327954,1.1863649596327954 -1.9087475706336143,2.8047033945679396 -1.9087475706336143 4.591252429366386c 1.3599725828059055e-16,1.3657095872137803 0.5645779665014662,2.616439429206784 1.4740692686473411 3.5259307313526587c 0.9094913021458747,0.9094913021458755 2.160221144138879,1.4740692686473416 3.525930731352659 1.4740692686473416c 0.5522847498307935,1.0145306266472669e-16 1.0,-0.44771525016920627 1.0000000000000002 -0.9999999999999996" /><path d="M 1.9999999999999998,1.0000000000000004 c 1.6452419183154008,1.0328602208800887e-15 3.0000000000000004,-1.3547580816845968 3.0000000000000018 -2.9999999999999973c 3.697785493223493e-32,-1.509665339284023 -0.6133551063959932,-2.88164640275567 -1.615854351820162 -3.8841456481798384c -1.0024992454241686,-1.0024992454241692 -2.3744803088958157,-1.6158543518201627 -3.884145648179839 -1.6158543518201627c -1.5096653392840227,-9.244034127689407e-17 -2.881646402755669,0.6133551063959927 -3.8841456481798384 1.6158543518201618c -1.0024992454241688,1.0024992454241688 -1.6158543518201618,2.374480308895816 -1.6158543518201618 3.884145648179838c 2.174358068111353e-16,2.1835305337762976 1.816469466223703,4.0 3.9999999999999996 4.0" /><path d="M 2.0,4.898587196589413e-16 c 1.101121942360023,6.912691926585467e-16 2.0000000000000004,-0.8988780576399756 2.0000000000000013 -1.9999999999999982c 2.465190328815662e-32,-1.2336620034775652 -0.5037429954416853,-2.3578207294282674 -1.3229611330067093 -3.177038866993291c -0.8192181375650239,-0.8192181375650244 -1.9433768635157258,-1.32296113300671 -3.177038866993291 -1.32296113300671c -1.233662003477565,-7.554001118942554e-17 -2.3578207294282665,0.5037429954416851 -3.177038866993291 1.3229611330067093c -0.819218137565024,0.819218137565024 -1.3229611330067093,1.9433768635157262 -1.3229611330067093 3.1770388669932905c 1.6383306684964313e-16,1.6452419183154006 1.3547580816845997,3.0 3.0 3.0" /><path d="M 2.0,-0.9999999999999996 c 0.5522847498307935,3.467167608293233e-16 1.0000000000000002,-0.4477152501692058 1.0000000000000007 -0.9999999999999991c 1.232595164407831e-32,-0.9584064574610127 -0.3936343117168378,-1.8334984833303243 -1.0300679141932567 -2.469932085806743c -0.6364336024764188,-0.6364336024764191 -1.5115256283457306,-1.030067914193257 -2.469932085806743 -1.0300679141932572c -0.9584064574610126,-5.868547002058915e-17 -1.8334984833303243,0.39363431171683794 -2.4699320858067435 1.030067914193257c -0.636433602476419,0.636433602476419 -1.0300679141932565,1.511525628345731 -1.0300679141932567 2.469932085806743c 1.0964964044740254e-16,1.101121942360023 0.8988780576399773,1.9999999999999998 1.9999999999999998 2.0" /><path d="M 2.0000000000000004,-1.9999999999999993 c 1.232595164407831e-32,-1.3675341456538554 -1.1324658543461446,-2.5 -2.5 -2.5c -1.3675341456538552,-8.37373157099852e-17 -2.5,1.1324658543461452 -2.5 2.5c 5.4996473972480494e-17,0.5522847498307935 0.44771525016920655,0.9999999999999999 0.9999999999999998 1.0" /><path d="M 1.0000000000000007,-1.9999999999999998 c 6.162975822039155e-33,-0.8249795674446264 -0.6750204325553736,-1.5 -1.5 -1.5c -0.8249795674446264,-5.0515429331651486e-17 -1.5,0.6750204325553738 -1.5 1.5" /><path d="M 1.2246467991473532e-16,-2.0 c 0.0,-0.2761423749153967 -0.22385762508460322,-0.5 -0.4999999999999999 -0.5c -0.2761423749153967,-1.6908843777454448e-17 -0.5,0.2238576250846032 -0.5 0.49999999999999983" /></g><g stroke="rgb(0,128,0)" stroke-opacity="1.0" fill-opacity="0.0" stroke-width="0.1"><g fill-opacity="0.0"><path d="M 1.0000000000000004,-1.9999999999999998 c -2.0290612532945337e-16,0.5522847498307935 0.4477152501692061,1.0 0.9999999999999994 1.0000000000000004" /><path d="M 0.0,0.0 l 4.898587196589413e-16,-2.0 " /></g><g fill-opacity="0.0"><path d="M 1.9999999999999998,1.0000000000000004 c -0.5522847498307935,-1.690884377745445e-16 -1.0,0.44771525016920616 -1.0000000000000004 0.9999999999999994" /><path d="M 0.0,0.0 l 2.0,3.6739403974420594e-16 " /></g><g fill-opacity="0.0"><path d="M -1.0000000000000002,1.9999999999999998 c 1.3527075021963558e-16,-0.5522847498307935 -0.4477152501692062,-1.0 -0.9999999999999996 -1.0000000000000004" /><path d="M 0.0,0.0 l -2.4492935982947064e-16,2.0 " /></g><g fill-opacity="0.0"><path d="M -2.0,-1.0000000000000002 c 0.5522847498307935,1.0145306266472669e-16 1.0,-0.44771525016920627 1.0000000000000002 -0.9999999999999996" /><path d="M 0.0,0.0 l -2.0,-1.2246467991473532e-16 " /></g></g></g></g></g></g></svg>