<?xml version="1.0" encoding="UTF-8"?>
<!DOCTYPE svg PUBLIC "-//W3C//DTD SVG 1.1//EN"
    "http://www.w3.org/Graphics/SVG/1.1/DTD/svg11.dtd">
<svg xmlns="http://www.w3.org/2000/svg" xmlns:xlink="http://www.w3.org/1999/xlink" version="1.1" width="400.0" height="373.33333333333337" font-size="1" viewBox="0 0 400 373"><g><g stroke="rgb(0,0,0)" stroke-opacity="1.0" fill-opacity="0.0" stroke-width="1.0e-2" stroke-linecap="butt" stroke-linejoin="miter" font-size="1.0em" stroke-miterlimit="10.0"><g transform="matrix(26.66666666666666,0.0,0.0,26.66666666666666,213.33333333333331,266.6666666666665)"><g stroke="rgb(0,128,0)" stroke-opacity="1.0" fill-opacity="0.0" stroke-width="0.1"><path d="M 0.9999999999999997,2.0 c -3.1289907327441414e-16,0.5522847498307931 0.44771525016920577,0.9999999999999999 0.9999999999999989 1.0000000000000004c 1.3657095872137808,8.573736726523546e-16 2.616439429206785,-0.5645779665014641 3.52593073135266 -1.474069268647338c 0.9094913021458754,-0.9094913021458735 1.474069268647342,-2.1602211441388772 1.4740692686473433 -3.5259307313526578l 6.123233995736766e-17,-1.0 c 2.465190328815662e-32,-1.9145634257391209 -0.7848563949867213,-3.665144982438231 -2.059855706274245 -4.940144293725755c -1.2749993112875238,-1.2749993112875238 -3.025580867986634,-2.0598557062742455 -4.940144293725755 -2.059855706274246l -1.0,-6.123233995736766e-17 c -1.9145634257391189,-1.1723319855480017e-16 -3.6651449824382296,0.7848563949867216 -4.940144293725755 2.0598557062742455c -1.2749993112875246,1.2749993112875238 -2.059855706274247,3.025580867986636 -2.0598557062742473 4.940144293725755l -6.123233995736766e-17,1.0 c -2.0083712580329174e-16,1.6399595862506835 0.6748350003801383,3.140910025458551 1.7669624874607937 4.233037512539207c 1.092127487080655,1.0921274870806557 2.5930779262885237,1.766962487460794 4.233037512539206 1.766962487460794c 1.1011219423600218,-1.5344133931027907e-15 1.9999999999999967,-0.8988780576399777 1.9999999999999973 -1.9999999999999993" /><path d="M 1.9999999999999996,2.0000000000000004 c 2.1835305337762985,1.3707904012826504e-15 4.000000000000001,-1.8164694662236982 4.000000000000003 -3.999999999999996l 6.123233995736766e-17,-1.0 c 1.232595164407831e-32,-1.6399595862506853 -0.6748350003801376,-3.140910025458552 -1.7669624874607928 -4.233037512539207c -1.092127487080655,-1.092127487080655 -2.593077926288522,-1.7669624874607932 -4.233037512539207 -1.7669624874607932l -1.0,-6.123233995736766e-17 c -1.639959586250684,-1.0041856290164589e-16 -3.140910025458551,0.6748350003801379 -4.233037512539207 1.7669624874607932c -1.0921274870806557,1.092127487080655 -1.7669624874607943,2.5930779262885233 -1.7669624874607943 4.233037512539207l -6.123233995736766e-17,1.0 c -1.6725118745462086e-16,1.36570958721378 0.5645779665014661,2.616439429206784 1.4740692686473411 3.525930731352659c 0.9094913021458746,0.9094913021458754 2.1602211441388794,1.4740692686473416 3.5259307313526587 1.4740692686473416c 0.5522847498307928,-7.696087820486977e-16 0.9999999999999984,-0.44771525016920694 0.9999999999999987 -0.9999999999999996" /><path d="M 1.9999999999999998,1.0000000000000004 c 1.6452419183154008,1.0328602208800887e-15 3.0000000000000004,-1.3547580816845968 3.0000000000000018 -2.9999999999999973l 6.123233995736766e-17,-1.0 c 1.232595164407831e-32,-1.3657095872137812 -0.5645779665014655,-2.616439429206785 -1.4740692686473402 -3.5259307313526596c -0.9094913021458746,-0.9094913021458748 -2.1602211441388786,-1.4740692686473407 -3.5259307313526596 -1.4740692686473407l -1.0,-6.123233995736766e-17 c -1.3657095872137803,-8.362559372731046e-17 -2.616439429206784,0.5645779665014656 -3.525930731352659 1.4740692686473407c -0.9094913021458755,0.9094913021458747 -1.4740692686473416,2.160221144138879 -1.4740692686473416 3.525930731352659l -6.123233995736766e-17,1.0 c -2.6740536790296537e-16,2.183530533776297 1.816469466223703,4.0 3.999999999999999 4.0" /><path d="M 2.0,4.898587196589413e-16 c 1.101121942360023,6.912691926585467e-16 2.0000000000000004,-0.8988780576399756 2.0000000000000013 -1.9999999999999982l 6.123233995736766e-17,-1.0 c 2.465190328815662e-32,-2.1835305337762994 -1.8164694662237009,-4.0 -3.9999999999999996 -4.0l -1.0,-6.123233995736766e-17 c -2.1835305337762976,-1.337026839514827e-16 -4.0,1.8164694662237022 -4.0 3.999999999999999l -6.123233995736766e-17,1.0 c -2.0148402490880062e-16,1.6452419183154003 1.3547580816845997,3.0 2.9999999999999996 3.0" /><path d="M 2.0,-0.9999999999999996 c 0.5522847498307935,3.467167608293233e-16 1.0000000000000002,-0.4477152501692058 1.0000000000000007 -0.9999999999999991l 6.123233995736766e-17,-1.0 c 1.232595164407831e-32,-1.6452419183154015 -1.3547580816845985,-3.0 -3.0 -3.0l -1.0,-6.123233995736766e-17 c -1.6452419183154006,-1.0074201245440032e-16 -3.0,1.3547580816845992 -3.0 2.9999999999999996l -6.123233995736766e-17,1.0 c -1.3484854621821184e-16,1.101121942360023 0.8988780576399771,2.0 1.9999999999999993 2.0" /><path d="M 2.0000000000000004,-1.9999999999999993 l 6.123233995736766e-17,-1.0 c 0.0,-1.1011219423600231 -0.8988780576399769,-2.0 -1.9999999999999998 -2.0l -1.0,-6.123233995736766e-17 c -1.101121942360023,-6.742427310910592e-17 -2.0,0.898878057639977 -2.0 1.9999999999999996l -6.123233995736766e-17,1.0 c -6.763537510981779e-17,0.5522847498307935 0.4477152501692063,1.0 0.9999999999999996 1.0" /><path d="M 1.0000000000000007,-1.9999999999999998 l 6.123233995736766e-17,-1.0 c 0.0,-0.5522847498307935 -0.44771525016920644,-1.0 -0.9999999999999998 -1.0l -1.0,-6.123233995736766e-17 c -0.5522847498307935,-3.3817687554908895e-17 -1.0,0.4477152501692064 -1.0 0.9999999999999997l -6.123233995736766e-17,1.0 " /><path d="M 1.2246467991473532e-16,-2.0 l 6.123233995736766e-17,-1.0 l -1.0,-6.123233995736766e-17 l -6.123233995736766e-17,1.0 " /></g><g stroke="rgb(0,128,0)" stroke-opacity="1.0" fill-opacity="0.0" stroke-width="0.1"><g fill-opacity="0.0"><g fill="rgb(255,0,0)" fill-opacity="1.0"><path d="M 1.0100000000000005,-1.9999999999999998 c 1.3527075021963559e-18,-5.522847498307935e-3 -4.477152501692062e-3,-1.0000000000000002e-2 -9.999999999999997e-3 -1.0000000000000002e-2c -5.522847498307935e-3,-1.6908843777454448e-18 -1.0000000000000002e-2,4.477152501692061e-3 -1.0000000000000002e-2 9.999999999999995e-3c -2.0290612532945338e-18,5.522847498307935e-3 4.477152501692061e-3,1.0000000000000002e-2 9.999999999999993e-3 1.0000000000000002e-2c 5.522847498307935e-3,2.3672381288436228e-18 1.0000000000000002e-2,-4.47715250169206e-3 1.0000000000000004e-2 -9.999999999999995e-3Z" /></g><g fill="rgb(255,0,0)" fill-opacity="1.0"><path d="M 2.0100000000000002,-1.9999999999999996 c 1.3527075021963559e-18,-5.522847498307935e-3 -4.477152501692062e-3,-1.0000000000000002e-2 -9.999999999999997e-3 -1.0000000000000002e-2c -5.522847498307935e-3,-1.6908843777454448e-18 -1.0000000000000002e-2,4.477152501692061e-3 -1.0000000000000002e-2 9.999999999999995e-3c -2.0290612532945338e-18,5.522847498307935e-3 4.477152501692061e-3,1.0000000000000002e-2 9.999999999999993e-3 1.0000000000000002e-2c 5.522847498307935e-3,2.3672381288436228e-18 1.0000000000000002e-2,-4.47715250169206e-3 1.0000000000000004e-2 -9.999999999999995e-3Z" /></g><g fill="rgb(255,0,0)" fill-opacity="1.0"><path d="M 2.0100000000000002,-0.9999999999999996 c 1.3527075021963559e-18,-5.522847498307935e-3 -4.477152501692062e-3,-1.0000000000000002e-2 -9.999999999999997e-3 -1.0000000000000002e-2c -5.522847498307935e-3,-1.6908843777454448e-18 -1.0000000000000002e-2,4.477152501692061e-3 -1.0000000000000002e-2 9.999999999999995e-3c -2.0290612532945338e-18,5.522847498307935e-3 4.477152501692061e-3,1.0000000000000002e-2 9.999999999999993e-3 1.0000000000000002e-2c 5.522847498307935e-3,2.3672381288436228e-18 1.0000000000000002e-2,-4.47715250169206e-3 1.0000000000000004e-2 -9.999999999999995e-3Z" /></g><g fill="rgb(255,0,0)" fill-opacity="1.0"><path d="M 2.01,4.92308013257236e-16 c 1.3527075021963559e-18,-5.522847498307935e-3 -4.477152501692062e-3,-1.0000000000000002e-2 -9.999999999999997e-3 -1.0000000000000002e-2c -5.522847498307935e-3,-1.6908843777454448e-18 -1.0000000000000002e-2,4.477152501692061e-3 -1.0000000000000002e-2 9.999999999999995e-3c -2.0290612532945338e-18,5.522847498307935e-3 4.477152501692061e-3,1.0000000000000002e-2 9.999999999999993e-3 1.0000000000000002e-2c 5.522847498307935e-3,2.3672381288436228e-18 1.0000000000000002e-2,-4.47715250169206e-3 1.0000000000000004e-2 -9.999999999999995e-3Z" /></g><g fill-opacity="0.0"><path d="M 1.0000000000000004,-2.0 c -2.0290612532945337e-16,0.5522847498307935 0.4477152501692061,1.0 0.9999999999999994 1.0000000000000004" /></g><path d="M 0.0,0.0 l 4.898587196589413e-16,-2.0 " /></g><g fill-opacity="0.0"><g fill="rgb(255,0,0)" fill-opacity="1.0"><path d="M 1.9999999999999998,1.0100000000000005 c 5.522847498307935e-3,1.0145306266472667e-18 1.0e-2,-4.477152501692063e-3 1.0000000000000002e-2 -9.999999999999997e-3c 1.3527075021963557e-18,-5.522847498307935e-3 -4.477152501692062e-3,-1.0e-2 -9.999999999999995e-3 -1.0000000000000002e-2c -5.522847498307935e-3,-1.6908843777454446e-18 -1.0e-2,4.477152501692062e-3 -1.0000000000000002e-2 9.999999999999993e-3c -2.0290612532945338e-18,5.522847498307935e-3 4.477152501692061e-3,1.0e-2 9.999999999999995e-3 1.0000000000000004e-2Z" /></g><g fill="rgb(255,0,0)" fill-opacity="1.0"><path d="M 1.9999999999999996,2.0100000000000002 c 5.522847498307935e-3,1.0145306266472667e-18 1.0e-2,-4.477152501692063e-3 1.0000000000000002e-2 -9.999999999999997e-3c 1.3527075021963557e-18,-5.522847498307935e-3 -4.477152501692062e-3,-1.0e-2 -9.999999999999995e-3 -1.0000000000000002e-2c -5.522847498307935e-3,-1.6908843777454446e-18 -1.0e-2,4.477152501692062e-3 -1.0000000000000002e-2 9.999999999999993e-3c -2.0290612532945338e-18,5.522847498307935e-3 4.477152501692061e-3,1.0e-2 9.999999999999995e-3 1.0000000000000004e-2Z" /></g><g fill="rgb(255,0,0)" fill-opacity="1.0"><path d="M 0.9999999999999997,2.01 c 5.522847498307935e-3,1.0145306266472667e-18 1.0e-2,-4.477152501692063e-3 1.0000000000000002e-2 -9.999999999999997e-3c 1.3527075021963557e-18,-5.522847498307935e-3 -4.477152501692062e-3,-1.0e-2 -9.999999999999995e-3 -1.0000000000000002e-2c -5.522847498307935e-3,-1.6908843777454446e-18 -1.0e-2,4.477152501692062e-3 -1.0000000000000002e-2 9.999999999999993e-3c -2.0290612532945338e-18,5.522847498307935e-3 4.477152501692061e-3,1.0e-2 9.999999999999995e-3 1.0000000000000004e-2Z" /></g><g fill="rgb(255,0,0)" fill-opacity="1.0"><path d="M -3.6923100994292695e-16,2.01 c 5.522847498307935e-3,1.0145306266472667e-18 1.0e-2,-4.477152501692063e-3 1.0000000000000002e-2 -9.999999999999997e-3c 1.3527075021963557e-18,-5.522847498307935e-3 -4.477152501692062e-3,-1.0e-2 -9.999999999999995e-3 -1.0000000000000002e-2c -5.522847498307935e-3,-1.6908843777454446e-18 -1.0e-2,4.477152501692062e-3 -1.0000000000000002e-2 9.999999999999993e-3c -2.0290612532945338e-18,5.522847498307935e-3 4.477152501692061e-3,1.0e-2 9.999999999999995e-3 1.0000000000000004e-2Z" /></g><g fill-opacity="0.0"><path d="M 1.9999999999999998,1.0000000000000004 c -0.5522847498307935,-1.690884377745445e-16 -1.0,0.44771525016920616 -1.0000000000000004 0.9999999999999994" /></g><path d="M 0.0,0.0 l 2.0,3.6739403974420594e-16 " /></g><g fill-opacity="0.0"><g fill="rgb(255,0,0)" fill-opacity="1.0"><path d="M -1.0100000000000002,1.9999999999999998 c -6.763537510981779e-19,5.522847498307935e-3 4.477152501692064e-3,1.0e-2 9.999999999999997e-3 1.0000000000000002e-2c 5.522847498307935e-3,1.0145306266472669e-18 1.0e-2,-4.477152501692063e-3 1.0000000000000002e-2 -9.999999999999995e-3c 1.3527075021963559e-18,-5.522847498307935e-3 -4.477152501692063e-3,-1.0e-2 -9.999999999999993e-3 -1.0000000000000002e-2c -5.522847498307935e-3,-1.6908843777454448e-18 -1.0e-2,4.477152501692062e-3 -1.0000000000000004e-2 9.999999999999995e-3Z" /></g><g fill="rgb(255,0,0)" fill-opacity="1.0"><path d="M -2.0100000000000002,1.9999999999999998 c -6.763537510981779e-19,5.522847498307935e-3 4.477152501692064e-3,1.0e-2 9.999999999999997e-3 1.0000000000000002e-2c 5.522847498307935e-3,1.0145306266472669e-18 1.0e-2,-4.477152501692063e-3 1.0000000000000002e-2 -9.999999999999995e-3c 1.3527075021963559e-18,-5.522847498307935e-3 -4.477152501692063e-3,-1.0e-2 -9.999999999999993e-3 -1.0000000000000002e-2c -5.522847498307935e-3,-1.6908843777454448e-18 -1.0e-2,4.477152501692062e-3 -1.0000000000000004e-2 9.999999999999995e-3Z" /></g><g fill="rgb(255,0,0)" fill-opacity="1.0"><path d="M -2.01,0.9999999999999998 c -6.763537510981779e-19,5.522847498307935e-3 4.477152501692064e-3,1.0e-2 9.999999999999997e-3 1.0000000000000002e-2c 5.522847498307935e-3,1.0145306266472669e-18 1.0e-2,-4.477152501692063e-3 1.0000000000000002e-2 -9.999999999999995e-3c 1.3527075021963559e-18,-5.522847498307935e-3 -4.477152501692063e-3,-1.0e-2 -9.999999999999993e-3 -1.0000000000000002e-2c -5.522847498307935e-3,-1.6908843777454448e-18 -1.0e-2,4.477152501692062e-3 -1.0000000000000004e-2 9.999999999999995e-3Z" /></g><g fill="rgb(255,0,0)" fill-opacity="1.0"><path d="M -2.01,-2.46154006628618e-16 c -6.763537510981779e-19,5.522847498307935e-3 4.477152501692064e-3,1.0e-2 9.999999999999997e-3 1.0000000000000002e-2c 5.522847498307935e-3,1.0145306266472669e-18 1.0e-2,-4.477152501692063e-3 1.0000000000000002e-2 -9.999999999999995e-3c 1.3527075021963559e-18,-5.522847498307935e-3 -4.477152501692063e-3,-1.0e-2 -9.999999999999993e-3 -1.0000000000000002e-2c -5.522847498307935e-3,-1.6908843777454448e-18 -1.0e-2,4.477152501692062e-3 -1.0000000000000004e-2 9.999999999999995e-3Z" /></g><g fill-opacity="0.0"><path d="M -1.0000000000000004,2.0 c 1.3527075021963558e-16,-0.5522847498307935 -0.4477152501692062,-1.0 -0.9999999999999996 -1.0000000000000004" /></g><path d="M 0.0,0.0 l -2.4492935982947064e-16,2.0 " /></g><g fill-opacity="0.0"><g fill="rgb(255,0,0)" fill-opacity="1.0"><path d="M -2.0,-1.0100000000000002 c -5.522847498307935e-3,-3.3817687554908897e-19 -1.0e-2,4.477152501692064e-3 -1.0e-2 9.999999999999998e-3c -6.763537510981779e-19,5.522847498307935e-3 4.477152501692063e-3,1.0e-2 9.999999999999997e-3 1.0e-2c 5.522847498307935e-3,1.0145306266472669e-18 1.0e-2,-4.477152501692063e-3 1.0e-2 -9.999999999999995e-3c 1.3527075021963559e-18,-5.522847498307935e-3 -4.477152501692062e-3,-1.0e-2 -9.999999999999997e-3 -1.0000000000000002e-2Z" /></g><g fill="rgb(255,0,0)" fill-opacity="1.0"><path d="M -1.9999999999999998,-2.01 c -5.522847498307935e-3,-3.3817687554908897e-19 -1.0e-2,4.477152501692064e-3 -1.0e-2 9.999999999999998e-3c -6.763537510981779e-19,5.522847498307935e-3 4.477152501692063e-3,1.0e-2 9.999999999999997e-3 1.0e-2c 5.522847498307935e-3,1.0145306266472669e-18 1.0e-2,-4.477152501692063e-3 1.0e-2 -9.999999999999995e-3c 1.3527075021963559e-18,-5.522847498307935e-3 -4.477152501692062e-3,-1.0e-2 -9.999999999999997e-3 -1.0000000000000002e-2Z" /></g><g fill="rgb(255,0,0)" fill-opacity="1.0"><path d="M -0.9999999999999999,-2.01 c -5.522847498307935e-3,-3.3817687554908897e-19 -1.0e-2,4.477152501692064e-3 -1.0e-2 9.999999999999998e-3c -6.763537510981779e-19,5.522847498307935e-3 4.477152501692063e-3,1.0e-2 9.999999999999997e-3 1.0e-2c 5.522847498307935e-3,1.0145306266472669e-18 1.0e-2,-4.477152501692063e-3 1.0e-2 -9.999999999999995e-3c 1.3527075021963559e-18,-5.522847498307935e-3 -4.477152501692062e-3,-1.0e-2 -9.999999999999997e-3 -1.0000000000000002e-2Z" /></g><g fill="rgb(255,0,0)" fill-opacity="1.0"><path d="M 1.23077003314309e-16,-2.01 c -5.522847498307935e-3,-3.3817687554908897e-19 -1.0e-2,4.477152501692064e-3 -1.0e-2 9.999999999999998e-3c -6.763537510981779e-19,5.522847498307935e-3 4.477152501692063e-3,1.0e-2 9.999999999999997e-3 1.0e-2c 5.522847498307935e-3,1.0145306266472669e-18 1.0e-2,-4.477152501692063e-3 1.0e-2 -9.999999999999995e-3c 1.3527075021963559e-18,-5.522847498307935e-3 -4.477152501692062e-3,-1.0e-2 -9.999999999999997e-3 -1.0000000000000002e-2Z" /></g><g fill-opacity="0.0"><path d="M -2.0,-1.0 c 0.5522847498307935,1.0145306266472669e-16 1.0,-0.44771525016920627 1.0000000000000002 -0.9999999999999996" /></g><path d="M 0.0,0.0 l -2.0,-1.2246467991473532e-16 " /></g></g></g></g></g></svg>