<?xml version="1.0" encoding="UTF-8"?>
<!DOCTYPE svg PUBLIC "-//W3C//DTD SVG 1.1//EN"
    "http://www.w3.org/Graphics/SVG/1.1/DTD/svg11.dtd">
<svg xmlns="http://www.w3.org/2000/svg" xmlns:xlink="http://www.w3.org/1999/xlink" version="1.1" width="400.0" height="399.99999999999994" font-size="1" viewBox="0 0 400 400"><g><g stroke="rgb(0,0,0)" stroke-opacity="1.0" fill-opacity="0.0" stroke-width="1.0e-2" stroke-linecap="butt" stroke-linejoin="miter" font-size="1.0em" stroke-miterlimit="10.0"><g transform="matrix(26.402640264026395,0.0,0.0,26.402640264026395,239.99999999999997,266.66666666666663)"><g fill-opacity="0.0"><g stroke="rgb(0,128,0)" stroke-opacity="1.0" fill-opacity="0.0" stroke-width="0.1"><path d="M 1.9999999999999996,2.0000000000000004 l 1.0,5.053215498074303e-16 l 1.0,5.053215498074303e-16 l 1.0000000000000004,5.053215498074303e-16 l 1.0,6.123233995736766e-17 l 6.123233995736765e-17,-0.9999999999999998 l 6.123233995736766e-17,-1.0 l 5.053215498074303e-16,-1.0 l 5.053215498074303e-16,-1.0000000000000004 l 6.123233995736766e-17,-1.0 l 6.123233995736766e-17,-1.0 l 6.123233995736766e-17,-1.0 l 6.123233995736766e-17,-1.0 l 6.123233995736766e-17,-1.0 l 6.123233995736766e-17,-1.0 l 6.123233995736771e-17,-1.0000000000000009 l 6.123233995736766e-17,-1.0 l -1.0,-6.123233995736766e-17 l -1.0,-6.123233995736766e-17 l -0.9999999999999996,-6.123233995736764e-17 l -1.0,-6.123233995736766e-17 l -1.0,-6.123233995736766e-17 l -1.0,-6.123233995736766e-17 l -1.0,-6.123233995736766e-17 l -1.0,-6.123233995736766e-17 l -1.0,-6.123233995736766e-17 l -1.0,-6.123233995736766e-17 l -1.0000000000000004,-6.123233995736769e-17 l -1.0,-6.123233995736766e-17 l -1.0,-6.123233995736766e-17 l -1.0,-6.123233995736766e-17 l -1.0,-6.123233995736766e-17 l -6.123233995736766e-17,1.0 l -6.123233995736771e-17,1.0000000000000009 l -6.123233995736766e-17,1.0 l -6.123233995736766e-17,1.0 l -6.123233995736766e-17,1.0 l -6.123233995736766e-17,1.0 l -6.123233995736766e-17,1.0 l -6.123233995736766e-17,1.0 l -6.123233995736766e-17,1.0 l -6.123233995736766e-17,1.0 l -6.123233995736766e-17,1.0 l -6.123233995736766e-17,1.0 l -6.123233995736766e-17,1.0 l -6.123233995736766e-17,1.0 l -6.123233995736766e-17,1.0 l 1.0,6.123233995736766e-17 l 1.0,6.123233995736766e-17 l 1.0,6.123233995736766e-17 l 1.0,6.123233995736766e-17 l 1.0000000000000004,6.123233995736769e-17 l 1.0,6.123233995736766e-17 l 1.0,6.123233995736766e-17 l 1.000000000000001,-3.828568698926949e-16 l 1.0000000000000013,-3.8285686989269484e-16 l 1.0000000000000013,-8.269460797427575e-16 l -1.7151244994428827e-15,-1.0000000000000013 l -1.7151244994428827e-15,-1.0000000000000009 l -1.7151244994428827e-15,-1.0000000000000004 " /><path d="M 1.9999999999999998,1.0000000000000004 l 1.0,5.053215498074303e-16 l 1.0,5.053215498074303e-16 l 1.0000000000000004,5.053215498074303e-16 l 6.123233995736766e-17,-1.0 l 5.053215498074303e-16,-1.0 l 5.053215498074303e-16,-1.0000000000000004 l 6.123233995736766e-17,-1.0 l 6.123233995736766e-17,-1.0 l 6.123233995736766e-17,-1.0 l 6.123233995736766e-17,-1.0 l 6.123233995736766e-17,-1.0 l 6.123233995736766e-17,-1.0 l 6.123233995736771e-17,-1.0000000000000009 l -1.0,-6.123233995736766e-17 l -0.9999999999999996,-6.123233995736764e-17 l -1.0,-6.123233995736766e-17 l -1.0,-6.123233995736766e-17 l -1.0,-6.123233995736766e-17 l -1.0,-6.123233995736766e-17 l -1.0,-6.123233995736766e-17 l -1.0,-6.123233995736766e-17 l -1.0,-6.123233995736766e-17 l -1.0000000000000004,-6.123233995736769e-17 l -1.0,-6.123233995736766e-17 l -1.0,-6.123233995736766e-17 l -1.0,-6.123233995736766e-17 l -6.123233995736771e-17,1.0000000000000009 l -6.123233995736766e-17,1.0 l -6.123233995736766e-17,1.0 l -6.123233995736766e-17,1.0 l -6.123233995736766e-17,1.0 l -6.123233995736766e-17,1.0 l -6.123233995736766e-17,1.0 l -6.123233995736766e-17,1.0 l -6.123233995736766e-17,1.0 l -6.123233995736766e-17,1.0 l -6.123233995736766e-17,1.0 l -6.123233995736766e-17,1.0 l -6.123233995736766e-17,1.0 l 1.0,6.123233995736766e-17 l 1.0,6.123233995736766e-17 l 1.0,6.123233995736766e-17 l 1.0000000000000004,6.123233995736769e-17 l 1.0,6.123233995736766e-17 l 1.0,6.123233995736766e-17 l 1.000000000000001,-3.828568698926949e-16 l 1.0000000000000013,-3.8285686989269484e-16 l -1.7151244994428827e-15,-1.0000000000000009 l -1.7151244994428827e-15,-1.0000000000000004 " /><path d="M 2.0,4.898587196589413e-16 l 1.0,5.053215498074303e-16 l 1.0,5.053215498074303e-16 l 5.053215498074303e-16,-1.0 l 5.053215498074303e-16,-1.0000000000000004 l 6.123233995736766e-17,-1.0 l 6.123233995736766e-17,-1.0 l 6.123233995736766e-17,-1.0 l 6.123233995736766e-17,-1.0 l 6.123233995736766e-17,-1.0 l 6.123233995736766e-17,-1.0 l -0.9999999999999996,-6.123233995736764e-17 l -1.0,-6.123233995736766e-17 l -1.0,-6.123233995736766e-17 l -1.0,-6.123233995736766e-17 l -1.0,-6.123233995736766e-17 l -1.0,-6.123233995736766e-17 l -1.0,-6.123233995736766e-17 l -1.0,-6.123233995736766e-17 l -1.0000000000000004,-6.123233995736769e-17 l -1.0,-6.123233995736766e-17 l -1.0,-6.123233995736766e-17 l -6.123233995736766e-17,1.0 l -6.123233995736766e-17,1.0 l -6.123233995736766e-17,1.0 l -6.123233995736766e-17,1.0 l -6.123233995736766e-17,1.0 l -6.123233995736766e-17,1.0 l -6.123233995736766e-17,1.0 l -6.123233995736766e-17,1.0 l -6.123233995736766e-17,1.0 l -6.123233995736766e-17,1.0 l -6.123233995736766e-17,1.0 l 1.0,6.123233995736766e-17 l 1.0,6.123233995736766e-17 l 1.0000000000000004,6.123233995736769e-17 l 1.0,6.123233995736766e-17 l 1.0,6.123233995736766e-17 l 1.000000000000001,-3.828568698926949e-16 l -1.7151244994428827e-15,-1.0000000000000004 " /><path d="M 2.0,-0.9999999999999996 l 1.0,5.053215498074303e-16 l 5.053215498074303e-16,-1.0000000000000004 l 6.123233995736766e-17,-1.0 l 6.123233995736766e-17,-1.0 l 6.123233995736766e-17,-1.0 l 6.123233995736766e-17,-1.0 l 6.123233995736766e-17,-1.0 l -1.0,-6.123233995736766e-17 l -1.0,-6.123233995736766e-17 l -1.0,-6.123233995736766e-17 l -1.0,-6.123233995736766e-17 l -1.0,-6.123233995736766e-17 l -1.0,-6.123233995736766e-17 l -1.0,-6.123233995736766e-17 l -1.0000000000000004,-6.123233995736769e-17 l -1.0,-6.123233995736766e-17 l -6.123233995736766e-17,1.0 l -6.123233995736766e-17,1.0 l -6.123233995736766e-17,1.0 l -6.123233995736766e-17,1.0 l -6.123233995736766e-17,1.0 l -6.123233995736766e-17,1.0 l -6.123233995736766e-17,1.0 l -6.123233995736766e-17,1.0 l -6.123233995736766e-17,1.0 l 1.0,6.123233995736766e-17 l 1.0000000000000004,6.123233995736769e-17 l 1.0,6.123233995736766e-17 l 1.0,6.123233995736766e-17 " /><path d="M 2.0000000000000004,-1.9999999999999993 l 6.123233995736766e-17,-1.0 l 6.123233995736766e-17,-1.0 l 6.123233995736766e-17,-1.0 l 6.123233995736766e-17,-1.0 l -1.0,-6.123233995736766e-17 l -1.0,-6.123233995736766e-17 l -1.0,-6.123233995736766e-17 l -1.0,-6.123233995736766e-17 l -1.0,-6.123233995736766e-17 l -1.0,-6.123233995736766e-17 l -1.0000000000000004,-6.123233995736769e-17 l -6.123233995736766e-17,1.0 l -6.123233995736766e-17,1.0 l -6.123233995736766e-17,1.0 l -6.123233995736766e-17,1.0 l -6.123233995736766e-17,1.0 l -6.123233995736766e-17,1.0 l -6.123233995736766e-17,1.0 l 1.0000000000000004,6.123233995736769e-17 l 1.0,6.123233995736766e-17 l 1.0,6.123233995736766e-17 " /><path d="M 1.0000000000000007,-1.9999999999999998 l 6.123233995736766e-17,-1.0 l 6.123233995736766e-17,-1.0 l 6.123233995736766e-17,-1.0 l -1.0,-6.123233995736766e-17 l -1.0,-6.123233995736766e-17 l -1.0,-6.123233995736766e-17 l -1.0,-6.123233995736766e-17 l -1.0,-6.123233995736766e-17 l -6.123233995736766e-17,1.0 l -6.123233995736766e-17,1.0 l -6.123233995736766e-17,1.0 l -6.123233995736766e-17,1.0 l -6.123233995736766e-17,1.0 l 1.0,6.123233995736766e-17 l 1.0,6.123233995736766e-17 " /><path d="M 1.2246467991473532e-16,-2.0 l 6.123233995736766e-17,-1.0 l 6.123233995736766e-17,-1.0 l -1.0,-6.123233995736766e-17 l -1.0,-6.123233995736766e-17 l -1.0,-6.123233995736766e-17 l -6.123233995736766e-17,1.0 l -6.123233995736766e-17,1.0 l -6.123233995736766e-17,1.0 l 1.0,6.123233995736766e-17 " /><path d="M -0.9999999999999999,-2.0 l 6.123233995736766e-17,-1.0 l -1.0,-6.123233995736766e-17 l -6.123233995736766e-17,1.0 " /></g><g stroke="rgb(0,128,0)" stroke-opacity="1.0" fill-opacity="0.0" stroke-width="0.1"><g fill-opacity="0.0"><path d="M 2.0000000000000004,-0.9999999999999996 l -1.0,-2.4492935982947064e-16 l 2.4492935982947064e-16,-1.0 " /><path d="M 0.0,0.0 l 4.898587196589413e-16,-2.0 " /></g><g fill-opacity="0.0"><path d="M 0.9999999999999997,2.0 l 1.8369701987210297e-16,-1.0 l 1.0,1.8369701987210297e-16 " /><path d="M 0.0,0.0 l 2.0,3.6739403974420594e-16 " /></g><g fill-opacity="0.0"><path d="M -2.0,0.9999999999999998 l 1.0,1.2246467991473532e-16 l -1.2246467991473532e-16,1.0 " /><path d="M 0.0,0.0 l -2.4492935982947064e-16,2.0 " /></g><g fill-opacity="0.0"><path d="M -0.9999999999999999,-2.0 l -6.123233995736766e-17,1.0 l -1.0,-6.123233995736766e-17 " /><path d="M 0.0,0.0 l -2.0,-1.2246467991473532e-16 " /></g></g></g></g></g></g></svg>