<?xml version="1.0" encoding="UTF-8"?>
<!DOCTYPE svg PUBLIC "-//W3C//DTD SVG 1.1//EN"
    "http://www.w3.org/Graphics/SVG/1.1/DTD/svg11.dtd">
<svg xmlns="http://www.w3.org/2000/svg" xmlns:xlink="http://www.w3.org/1999/xlink" version="1.1" width="400.0" height="477.3198649763111" font-size="1" viewBox="0 0 400 477"><g><g stroke="rgb(0,0,0)" stroke-opacity="1.0" fill-opacity="0.0" stroke-width="1.0e-2" stroke-linecap="butt" stroke-linejoin="miter" font-size="1.0em" stroke-miterlimit="10.0"><g transform="matrix(26.402640264026413,0.0,0.0,26.402640264026413,240.00000000000003,343.98653164297764)"><g fill-opacity="0.0"><g stroke="rgb(0,128,0)" stroke-opacity="1.0" fill-opacity="0.0" stroke-width="0.1"><path d="M 1.9999999999999996,2.0000000000000004 l 0.5,2.5266077490371514e-16 l 0.4142135623730945,2.0931103928962888e-16 l 0.41421356237309404,2.474078705912129e-16 l 0.4142135623730945,2.5363265666181634e-17 l 0.29289321881345254,-0.29289321881345143 l 0.292893218813453,-0.2928932188134521 l 0.292893218813453,-0.29289321881345237 l 0.5000000000000004,-0.5000000000000001 l 0.29289321881345254,-0.2928932188134522 l 0.2928932188134521,-0.2928932188134522 l 0.2928932188134521,-0.29289321881345226 l 2.5363265666181674e-17,-0.41421356237309515 l 2.5363265666181702e-17,-0.4142135623730956 l 2.5363265666181702e-17,-0.4142135623730956 l 3.061616997868383e-17,-0.5 l 3.061616997868383e-17,-0.5 l 2.5363265666181662e-17,-0.4142135623730949 l 2.5363265666181662e-17,-0.4142135623730949 l 2.536326566618169e-17,-0.41421356237309537 l 2.5363265666181607e-17,-0.41421356237309404 l 2.5363265666181662e-17,-0.4142135623730949 l 2.5363265666181662e-17,-0.4142135623730949 l 2.5363265666181718e-17,-0.4142135623730958 l -0.2928932188134521,-0.2928932188134521 l -0.2928932188134521,-0.2928932188134521 l -0.29289321881345165,-0.2928932188134521 l -0.29289321881345254,-0.292893218813453 l -0.29289321881345254,-0.29289321881345254 l -0.29289321881345254,-0.29289321881345254 l -0.29289321881345254,-0.29289321881345254 l -0.49999999999999994,-0.5 l -0.7071067811865475,-0.7071067811865475 l -0.7071067811865476,-0.7071067811865479 l -0.7071067811865475,-0.707106781186547 l -0.7071067811865472,-0.707106781186547 l -0.7071067811865474,-0.7071067811865461 l -0.7071067811865467,-0.7071067811865461 l -0.7071067811865468,-0.7071067811865461 l -0.7071067811865472,0.7071067811865461 l -0.707106781186547,0.7071067811865461 l -0.7071067811865477,0.7071067811865461 l -0.707106781186547,0.707106781186547 l -0.7071067811865477,0.707106781186547 l -0.7071067811865475,0.707106781186547 l -0.7071067811865475,0.7071067811865475 l -0.5,0.49999999999999994 l -0.29289321881345254,0.29289321881345254 l -0.29289321881345254,0.29289321881345254 l -0.29289321881345387,0.29289321881345387 l -0.2928932188134521,0.2928932188134521 l -0.2928932188134521,0.2928932188134521 l -0.2928932188134521,0.2928932188134521 l -0.2928932188134521,0.2928932188134521 l -2.5363265666181718e-17,0.4142135623730958 l -2.5363265666181718e-17,0.4142135623730958 l -2.5363265666181718e-17,0.4142135623730958 l -2.5363265666181718e-17,0.4142135623730958 l -2.5363265666181554e-17,0.41421356237309315 l -2.5363265666181662e-17,0.4142135623730949 l -2.5363265666181662e-17,0.4142135623730949 l -3.061616997868383e-17,0.5 l -3.061616997868383e-17,0.5 l -2.5363265666181662e-17,0.4142135623730949 l -2.5363265666181634e-17,0.4142135623730945 l -2.536326566618169e-17,0.41421356237309537 l -2.5363265666181668e-17,0.41421356237309503 l -2.5363265666181656e-17,0.4142135623730948 l -2.536326566618165e-17,0.4142135623730947 l 0.2928932188134521,0.2928932188134523 l 0.2928932188134521,0.2928932188134524 l 0.2928932188134521,0.2928932188134523 l 0.2928932188134521,0.2928932188134522 l 0.292893218813453,0.292893218813453 l 0.29289321881345254,0.29289321881345254 l 0.49999999999999994,0.5 l 0.29289321881345254,0.29289321881345254 l 0.29289321881345254,0.29289321881345254 l 0.29289321881345254,0.29289321881345254 l 0.2928932188134521,0.29289321881345254 l 0.292893218813453,0.292893218813453 l 0.2928932188134521,0.2928932188134521 l 0.4142135623730958,2.5363265666181718e-17 l 0.4142135623730949,2.5363265666181662e-17 l 0.41421356237309626,2.5363265666181742e-17 l 0.4142135623730945,2.5363265666181634e-17 l 0.4142135623730949,2.5363265666181662e-17 l 0.4142135623730949,2.5363265666181662e-17 l 0.5,3.061616997868383e-17 l 0.49999999999999956,4.747053798287464e-16 l 0.41421356237309426,2.5363265666181622e-17 l 0.4142135623730936,2.536326566618158e-17 l 0.29289321881345254,-0.2928932188134512 l 0.2928932188134532,-0.2928932188134521 l 0.5000000000000004,-0.49999999999999906 l 0.29289321881345326,-0.29289321881345254 l 0.2928932188134532,-0.29289321881345254 l 2.47407870591213e-16,-0.41421356237309537 l 1.9189671935995516e-16,-0.41421356237309537 l 2.5266077490371514e-16,-0.5 " /><path d="M 1.9999999999999998,1.0000000000000004 l 0.5,2.5266077490371514e-16 l 0.4142135623730945,2.0931103928962888e-16 l 0.41421356237309404,2.474078705912129e-16 l 0.292893218813453,-0.2928932188134521 l 0.292893218813453,-0.29289321881345237 l 0.5000000000000004,-0.5000000000000001 l 0.29289321881345254,-0.2928932188134522 l 0.2928932188134521,-0.2928932188134522 l 2.5363265666181702e-17,-0.4142135623730956 l 2.5363265666181702e-17,-0.4142135623730956 l 3.061616997868383e-17,-0.5 l 3.061616997868383e-17,-0.5 l 2.5363265666181662e-17,-0.4142135623730949 l 2.5363265666181662e-17,-0.4142135623730949 l 2.536326566618169e-17,-0.41421356237309537 l 2.5363265666181607e-17,-0.41421356237309404 l 2.5363265666181662e-17,-0.4142135623730949 l 2.5363265666181662e-17,-0.4142135623730949 l -0.2928932188134521,-0.2928932188134521 l -0.29289321881345165,-0.2928932188134521 l -0.29289321881345254,-0.292893218813453 l -0.29289321881345254,-0.29289321881345254 l -0.29289321881345254,-0.29289321881345254 l -0.29289321881345254,-0.29289321881345254 l -0.49999999999999994,-0.5 l -0.7071067811865475,-0.7071067811865475 l -0.7071067811865476,-0.7071067811865479 l -0.7071067811865475,-0.707106781186547 l -0.7071067811865472,-0.707106781186547 l -0.7071067811865474,-0.7071067811865461 l -0.7071067811865467,-0.7071067811865461 l -0.707106781186547,0.7071067811865461 l -0.7071067811865477,0.7071067811865461 l -0.707106781186547,0.707106781186547 l -0.7071067811865477,0.707106781186547 l -0.7071067811865475,0.707106781186547 l -0.7071067811865475,0.7071067811865475 l -0.5,0.49999999999999994 l -0.29289321881345254,0.29289321881345254 l -0.29289321881345254,0.29289321881345254 l -0.29289321881345387,0.29289321881345387 l -0.2928932188134521,0.2928932188134521 l -0.2928932188134521,0.2928932188134521 l -0.2928932188134521,0.2928932188134521 l -2.5363265666181718e-17,0.4142135623730958 l -2.5363265666181718e-17,0.4142135623730958 l -2.5363265666181718e-17,0.4142135623730958 l -2.5363265666181554e-17,0.41421356237309315 l -2.5363265666181662e-17,0.4142135623730949 l -2.5363265666181662e-17,0.4142135623730949 l -3.061616997868383e-17,0.5 l -3.061616997868383e-17,0.5 l -2.5363265666181662e-17,0.4142135623730949 l -2.5363265666181634e-17,0.4142135623730945 l -2.536326566618169e-17,0.41421356237309537 l -2.5363265666181668e-17,0.41421356237309503 l -2.5363265666181656e-17,0.4142135623730948 l 0.2928932188134521,0.2928932188134524 l 0.2928932188134521,0.2928932188134523 l 0.2928932188134521,0.2928932188134522 l 0.292893218813453,0.292893218813453 l 0.29289321881345254,0.29289321881345254 l 0.49999999999999994,0.5 l 0.29289321881345254,0.29289321881345254 l 0.29289321881345254,0.29289321881345254 l 0.29289321881345254,0.29289321881345254 l 0.2928932188134521,0.29289321881345254 l 0.292893218813453,0.292893218813453 l 0.4142135623730949,2.5363265666181662e-17 l 0.41421356237309626,2.5363265666181742e-17 l 0.4142135623730945,2.5363265666181634e-17 l 0.4142135623730949,2.5363265666181662e-17 l 0.4142135623730949,2.5363265666181662e-17 l 0.5,3.061616997868383e-17 l 0.49999999999999956,4.747053798287464e-16 l 0.41421356237309426,2.5363265666181622e-17 l 0.2928932188134532,-0.2928932188134521 l 0.5000000000000004,-0.49999999999999906 l 0.29289321881345326,-0.29289321881345254 l 1.9189671935995516e-16,-0.41421356237309537 l 2.5266077490371514e-16,-0.5 " /><path d="M 2.0,4.898587196589413e-16 l 0.5,2.5266077490371514e-16 l 0.4142135623730945,2.0931103928962888e-16 l 0.292893218813453,-0.29289321881345237 l 0.5000000000000004,-0.5000000000000001 l 0.29289321881345254,-0.2928932188134522 l 2.5363265666181702e-17,-0.4142135623730956 l 3.061616997868383e-17,-0.5 l 3.061616997868383e-17,-0.5 l 2.5363265666181662e-17,-0.4142135623730949 l 2.5363265666181662e-17,-0.4142135623730949 l 2.536326566618169e-17,-0.41421356237309537 l 2.5363265666181607e-17,-0.41421356237309404 l 2.5363265666181662e-17,-0.4142135623730949 l -0.29289321881345165,-0.2928932188134521 l -0.29289321881345254,-0.292893218813453 l -0.29289321881345254,-0.29289321881345254 l -0.29289321881345254,-0.29289321881345254 l -0.29289321881345254,-0.29289321881345254 l -0.49999999999999994,-0.5 l -0.7071067811865475,-0.7071067811865475 l -0.7071067811865476,-0.7071067811865479 l -0.7071067811865475,-0.707106781186547 l -0.7071067811865472,-0.707106781186547 l -0.7071067811865474,-0.7071067811865461 l -0.7071067811865477,0.7071067811865461 l -0.707106781186547,0.707106781186547 l -0.7071067811865477,0.707106781186547 l -0.7071067811865475,0.707106781186547 l -0.7071067811865475,0.7071067811865475 l -0.5,0.49999999999999994 l -0.29289321881345254,0.29289321881345254 l -0.29289321881345254,0.29289321881345254 l -0.29289321881345387,0.29289321881345387 l -0.2928932188134521,0.2928932188134521 l -0.2928932188134521,0.2928932188134521 l -2.5363265666181718e-17,0.4142135623730958 l -2.5363265666181718e-17,0.4142135623730958 l -2.5363265666181554e-17,0.41421356237309315 l -2.5363265666181662e-17,0.4142135623730949 l -2.5363265666181662e-17,0.4142135623730949 l -3.061616997868383e-17,0.5 l -3.061616997868383e-17,0.5 l -2.5363265666181662e-17,0.4142135623730949 l -2.5363265666181634e-17,0.4142135623730945 l -2.536326566618169e-17,0.41421356237309537 l -2.5363265666181668e-17,0.41421356237309503 l 0.2928932188134521,0.2928932188134523 l 0.2928932188134521,0.2928932188134522 l 0.292893218813453,0.292893218813453 l 0.29289321881345254,0.29289321881345254 l 0.49999999999999994,0.5 l 0.29289321881345254,0.29289321881345254 l 0.29289321881345254,0.29289321881345254 l 0.29289321881345254,0.29289321881345254 l 0.2928932188134521,0.29289321881345254 l 0.41421356237309626,2.5363265666181742e-17 l 0.4142135623730945,2.5363265666181634e-17 l 0.4142135623730949,2.5363265666181662e-17 l 0.4142135623730949,2.5363265666181662e-17 l 0.5,3.061616997868383e-17 l 0.49999999999999956,4.747053798287464e-16 l 0.5000000000000004,-0.49999999999999906 l 2.5266077490371514e-16,-0.5 " /><path d="M 2.0,-0.9999999999999996 l 0.5,2.5266077490371514e-16 l 0.5000000000000004,-0.5000000000000001 l 3.061616997868383e-17,-0.5 l 3.061616997868383e-17,-0.5 l 2.5363265666181662e-17,-0.4142135623730949 l 2.5363265666181662e-17,-0.4142135623730949 l 2.536326566618169e-17,-0.41421356237309537 l 2.5363265666181607e-17,-0.41421356237309404 l -0.29289321881345254,-0.292893218813453 l -0.29289321881345254,-0.29289321881345254 l -0.29289321881345254,-0.29289321881345254 l -0.29289321881345254,-0.29289321881345254 l -0.49999999999999994,-0.5 l -0.7071067811865475,-0.7071067811865475 l -0.7071067811865476,-0.7071067811865479 l -0.7071067811865475,-0.707106781186547 l -0.7071067811865472,-0.707106781186547 l -0.707106781186547,0.707106781186547 l -0.7071067811865477,0.707106781186547 l -0.7071067811865475,0.707106781186547 l -0.7071067811865475,0.7071067811865475 l -0.5,0.49999999999999994 l -0.29289321881345254,0.29289321881345254 l -0.29289321881345254,0.29289321881345254 l -0.29289321881345387,0.29289321881345387 l -0.2928932188134521,0.2928932188134521 l -2.5363265666181718e-17,0.4142135623730958 l -2.5363265666181554e-17,0.41421356237309315 l -2.5363265666181662e-17,0.4142135623730949 l -2.5363265666181662e-17,0.4142135623730949 l -3.061616997868383e-17,0.5 l -3.061616997868383e-17,0.5 l -2.5363265666181662e-17,0.4142135623730949 l -2.5363265666181634e-17,0.4142135623730945 l -2.536326566618169e-17,0.41421356237309537 l 0.2928932188134521,0.2928932188134522 l 0.292893218813453,0.292893218813453 l 0.29289321881345254,0.29289321881345254 l 0.49999999999999994,0.5 l 0.29289321881345254,0.29289321881345254 l 0.29289321881345254,0.29289321881345254 l 0.29289321881345254,0.29289321881345254 l 0.4142135623730945,2.5363265666181634e-17 l 0.4142135623730949,2.5363265666181662e-17 l 0.4142135623730949,2.5363265666181662e-17 l 0.5,3.061616997868383e-17 " /><path d="M 2.0000000000000004,-1.9999999999999993 l 3.061616997868383e-17,-0.5 l 2.5363265666181662e-17,-0.4142135623730949 l 2.5363265666181662e-17,-0.4142135623730949 l 2.536326566618169e-17,-0.41421356237309537 l -0.29289321881345254,-0.29289321881345254 l -0.29289321881345254,-0.29289321881345254 l -0.29289321881345254,-0.29289321881345254 l -0.49999999999999994,-0.5 l -0.7071067811865475,-0.7071067811865475 l -0.7071067811865476,-0.7071067811865479 l -0.7071067811865475,-0.707106781186547 l -0.7071067811865477,0.707106781186547 l -0.7071067811865475,0.707106781186547 l -0.7071067811865475,0.7071067811865475 l -0.5,0.49999999999999994 l -0.29289321881345254,0.29289321881345254 l -0.29289321881345254,0.29289321881345254 l -0.29289321881345387,0.29289321881345387 l -2.5363265666181554e-17,0.41421356237309315 l -2.5363265666181662e-17,0.4142135623730949 l -2.5363265666181662e-17,0.4142135623730949 l -3.061616997868383e-17,0.5 l -3.061616997868383e-17,0.5 l -2.5363265666181662e-17,0.4142135623730949 l -2.5363265666181634e-17,0.4142135623730945 l 0.292893218813453,0.292893218813453 l 0.29289321881345254,0.29289321881345254 l 0.49999999999999994,0.5 l 0.29289321881345254,0.29289321881345254 l 0.29289321881345254,0.29289321881345254 l 0.4142135623730949,2.5363265666181662e-17 l 0.4142135623730949,2.5363265666181662e-17 l 0.5,3.061616997868383e-17 " /><path d="M 1.0000000000000007,-1.9999999999999998 l 3.061616997868383e-17,-0.5 l 2.5363265666181662e-17,-0.4142135623730949 l 2.5363265666181662e-17,-0.4142135623730949 l -0.29289321881345254,-0.29289321881345254 l -0.29289321881345254,-0.29289321881345254 l -0.49999999999999994,-0.5 l -0.7071067811865475,-0.7071067811865475 l -0.7071067811865476,-0.7071067811865479 l -0.7071067811865475,0.707106781186547 l -0.7071067811865475,0.7071067811865475 l -0.5,0.49999999999999994 l -0.29289321881345254,0.29289321881345254 l -0.29289321881345254,0.29289321881345254 l -2.5363265666181662e-17,0.4142135623730949 l -2.5363265666181662e-17,0.4142135623730949 l -3.061616997868383e-17,0.5 l -3.061616997868383e-17,0.5 l -2.5363265666181662e-17,0.4142135623730949 l 0.29289321881345254,0.29289321881345254 l 0.49999999999999994,0.5 l 0.29289321881345254,0.29289321881345254 l 0.4142135623730949,2.5363265666181662e-17 l 0.5,3.061616997868383e-17 " /><path d="M 1.2246467991473532e-16,-2.0 l 3.061616997868383e-17,-0.5 l 2.5363265666181662e-17,-0.4142135623730949 l -0.29289321881345254,-0.29289321881345254 l -0.49999999999999994,-0.5 l -0.7071067811865475,-0.7071067811865475 l -0.7071067811865475,0.7071067811865475 l -0.5,0.49999999999999994 l -0.29289321881345254,0.29289321881345254 l -2.5363265666181662e-17,0.4142135623730949 l -3.061616997868383e-17,0.5 l -3.061616997868383e-17,0.5 l 0.49999999999999994,0.5 l 0.5,3.061616997868383e-17 " /><path d="M -0.9999999999999999,-2.0 l 3.061616997868383e-17,-0.5 l -0.49999999999999994,-0.5 l -0.5,0.49999999999999994 l -3.061616997868383e-17,0.5 " /></g><g stroke="rgb(0,128,0)" stroke-opacity="1.0" fill-opacity="0.0" stroke-width="0.1"><g fill-opacity="0.0"><path d="M 2.0000000000000004,-0.9999999999999996 l -0.5,-1.2246467991473532e-16 l -0.4999999999999999,-0.5000000000000001 l 1.2246467991473532e-16,-0.5 " /><path d="M 0.0,0.0 l 4.898587196589413e-16,-2.0 " /></g><g fill-opacity="0.0"><path d="M 0.9999999999999997,2.0 l 9.184850993605148e-17,-0.5 l 0.5000000000000001,-0.4999999999999999 l 0.5,9.184850993605148e-17 " /><path d="M 0.0,0.0 l 2.0,3.6739403974420594e-16 " /></g><g fill-opacity="0.0"><path d="M -2.0,0.9999999999999998 l 0.5,6.123233995736766e-17 l 0.49999999999999994,0.5000000000000001 l -6.123233995736766e-17,0.5 " /><path d="M 0.0,0.0 l -2.4492935982947064e-16,2.0 " /></g><g fill-opacity="0.0"><path d="M -0.9999999999999999,-2.0 l -3.061616997868383e-17,0.5 l -0.5,0.49999999999999994 l -0.5,-3.061616997868383e-17 " /><path d="M 0.0,0.0 l -2.0,-1.2246467991473532e-16 " /></g></g></g></g></g></g></svg>