<?xml version="1.0" encoding="UTF-8"?>
<!DOCTYPE svg PUBLIC "-//W3C//DTD SVG 1.1//EN"
    "http://www.w3.org/Graphics/SVG/1.1/DTD/svg11.dtd">
<svg xmlns="http://www.w3.org/2000/svg" xmlns:xlink="http://www.w3.org/1999/xlink" version="1.1" width="400.0" height="373.333333333333" font-size="1" viewBox="0 0 400 373"><g><g stroke="rgb(0,0,0)" stroke-opacity="1.0" fill-opacity="0.0" stroke-width="1.0e-2" stroke-linecap="butt" stroke-linejoin="miter" font-size="1.0em" stroke-miterlimit="10.0"><g transform="matrix(26.66666666666668,0.0,0.0,26.66666666666668,213.33333333333323,266.6666666666668)"><g stroke="rgb(0,128,0)" stroke-opacity="1.0" fill-opacity="0.0" stroke-width="0.1"><path d="M 0.9999999999999997,2.0 l -5.053215498074303e-16,1.0 l 1.0,5.053215498074303e-16 l 1.0,5.053215498074303e-16 l 0.19509032201612841,-1.921471959676956e-2 l 0.3826834323650905,-7.612046748871301e-2 l 0.1875931103489621,-5.6905747891943456e-2 l 0.7071067811865475,-0.29289321881345226 l 0.17288680065451256,-9.24099202087416e-2 l 0.3244233488214574,-0.2167727513247388 l 0.15153654816694484,-0.12436283111599787 l 1.0000000000000004,-0.9999999999999994 l 0.12436283111599968,-0.15153654816694684 l 0.21677275132473908,-0.3244233488214585 l 9.240992020874118e-2,-0.17288680065451167 l 0.29289321881345215,-0.7071067811865474 l 5.6905747891943484e-2,-0.1875931103489612 l 7.612046748871307e-2,-0.38268343236508895 l 1.921471959676958e-2,-0.19509032201612775 l 5.053215498074303e-16,-1.0000000000000004 l 6.123233995736766e-17,-1.0 l -3.0118130379541545e-4,-2.4541228522908742e-2 l -1.20454379482737e-3,-4.906767432741521e-2 l -9.033624910319545e-4,-2.452644580450647e-2 l -4.815273327802843e-3,-9.801714032956044e-2 l -1.5049995264826406e-3,-2.449688927224747e-2 l -3.6107295329754732e-3,-4.8949466002145225e-2 l -2.105730006492833e-3,-2.4452576729897757e-2 l -1.921471959676956e-2,-0.19509032201612886 l -2.7051920734866273e-3,-2.4393534869653788e-2 l -6.008216707416023e-3,-4.871333412580281e-2 l -3.3030246339302836e-3,-2.431979925614902e-2 l -1.4399446268966715e-2,-9.707318168656842e-2 l -3.8988675758400136e-3,-2.4231414304944465e-2 l -8.391229561550691e-3,-4.835984756076561e-2 l -4.49236198570979e-3,-2.4128433255821147e-2 l -7.612046748871346e-2,-0.38268343236509006 l -5.083150364701082e-3,-2.4010918140739967e-2 l -1.0754027208684565e-2,-4.788985788712763e-2 l -5.670876843983484e-3,-2.3878939746388994e-2 l -2.3844944671020045e-2,-9.519435523833097e-2 l -6.2551873991054645e-3,-2.3732577571640157e-2 l -1.3090917462336368e-2,-4.7304497351203345e-2 l -6.835730063230903e-3,-2.357191977956319e-2 l -5.690574789194301e-2,-0.1875931103489612 l -7.412155139165931e-3,-2.339706314441159e-2 l -1.539627054918746e-2,-4.660517613775905e-2 l -7.984115410021529e-3,-2.3208112993345686e-2 l -3.306080322092252e-2,-9.239875511062934e-2 l -8.551266348284512e-3,-2.3005183142773333e-2 l -1.7664532671735064e-2,-4.579357897287206e-2 l -9.113266323450551e-3,-2.278839583009873e-2 l -0.2928932188134525,-0.7071067811865475 l -9.669776807760043e-3,-2.255788163990946e-2 l -1.9890239387841287e-2,-4.487166106518625e-2 l -1.0220462580079468e-2,-2.2313779425276792e-2 l -4.1958268162932015e-2,-8.871330446091008e-2 l -1.0764991927931787e-2,-2.2056236224331727e-2 l -2.2068028775092504e-2,-4.384164339572383e-2 l -1.1303036847160717e-2,-2.17854071713921e-2 l -9.240992020874249e-2,-0.17288680065451345 l -1.1834273239637481e-2,-2.150145540377313e-2 l -2.419265434808526e-2,-4.2706007367229404e-2 l -1.2358381108449555e-2,-2.1204551963456275e-2 l -5.045165204581003e-2,-8.417349619360337e-2 l -1.2875044750563445e-2,-2.0894875693872272e-2 l -2.6258997697722993e-2,-4.1467488826373966e-2 l -1.3383952947159548e-2,-2.0572613132501694e-2 l -0.21677275132473903,-0.3244233488214565 l -1.3884799150967629e-2,-2.0237958398252154e-2 l -2.8262080821900067e-2,-4.0129071472829736e-2 l -1.4377281670932439e-2,-1.9891113074577582e-2 l -5.8459158939807125e-2,-7.882305114404176e-2 l -1.4861103854030942e-2,-1.9532286088184136e-2 l -3.0197078117907058e-2,-3.869397967121202e-2 l -1.5335974263876116e-2,-1.9161693583027883e-2 l -0.12436283111599698,-0.15153654816694484 l -1.5801606856261863e-2,-1.8779558790141593e-2 l -3.2059328007778554e-2,-3.716567068337273e-2 l -1.625772115151669e-2,-1.838611189323114e-2 l -6.590367217619031e-2,-7.271349702290308e-2 l -1.6704042403477892e-2,-1.79815898900344e-2 l -3.384434416841131e-2,-3.554782633953035e-2 l -1.714030176493342e-2,-1.7566236449495953e-2 l -0.9999999999999999,-1.0 l -1.756623644948707e-2,-1.714030176492365e-2 l -3.554782633953035e-2,-3.38443441684122e-2 l -1.798158989004328e-2,-1.670404240348944e-2 l -7.271349702290175e-2,-6.590367217618898e-2 l -1.8386111893239132e-2,-1.625772115152202e-2 l -3.71656706833714e-2,-3.205932800777678e-2 l -1.877955879013271e-2,-1.580160685625387e-2 l -0.1515365481669444,-0.12436283111599701 l -1.916169358301989e-2,-1.5335974263869902e-2 l -3.869397967121113e-2,-3.0197078117907065e-2 l -1.9532286088191242e-2,-1.486110385403805e-2 l -7.882305114404264e-2,-5.845915893980803e-2 l -1.9891113074584243e-2,-1.4377281670936883e-2 l -4.012907147283151e-2,-2.8262080821900962e-2 l -2.023795839824727e-2,-1.3884799150963191e-2 l -0.32442334882145807,-0.21677275132473997 l -2.0572613132521234e-2,-1.3383952947172874e-2 l -4.1467488826385956e-2,-2.6258997697729217e-2 l -2.0894875693864723e-2,-1.2875044750556343e-2 l -8.417349619360603e-2,-5.045165204581004e-2 l -2.1204551963430962e-2,-1.2358381108436236e-2 l -4.270600736722008e-2,-2.4192654348080826e-2 l -2.1501455403789116e-2,-1.183427323964459e-2 l -0.17288680065451367,-9.240992020874207e-2 l -2.1785407171400095e-2,-1.1303036847166938e-2 l -4.3841643395712726e-2,-2.2068028775086294e-2 l -2.2056236224312187e-2,-1.0764991927922908e-2 l -8.871330446090786e-2,-4.195826816293203e-2 l -2.231377942529189e-2,-1.0220462580084801e-2 l -4.4871661065195134e-2,-1.9890239387844847e-2 l -2.2557881639903687e-2,-9.669776807756493e-3 l -0.7071067811865475,-0.29289321881345215 l -2.2788395830083852e-2,-9.113266323446114e-3 l -4.579357897286762e-2,-1.7664532671734182e-2 l -2.3005183142783325e-2,-8.551266348288069e-3 l -9.2398755110628e-2,-3.306080322092254e-2 l -2.3208112993325702e-2,-7.984115410014427e-3 l -4.6605176137760385e-2,-1.5396270549189243e-2 l -2.3397063144434904e-2,-7.412155139174816e-3 l -0.18759311034896142,-5.6905747891943484e-2 l -2.3571919779541206e-2,-6.835730063224689e-3 l -4.730449735120201e-2,-1.3090917462337263e-2 l -2.3732577571660807e-2,-6.255187399110797e-3 l -9.519435523833342e-2,-2.3844944671020947e-2 l -2.387893974639055e-2,-5.6708768439843755e-3 l -4.7889857887131404e-2,-1.075402720868546e-2 l -2.4010918140740856e-2,-5.083150364701085e-3 l -0.3826834323650894,-7.612046748871307e-2 l -2.412843325579206e-2,-4.492361985702688e-3 l -4.83598475607625e-2,-8.391229561551587e-3 l -2.4231414304970444e-2,-3.8988675758453452e-3 l -9.707318168656709e-2,-1.4399446268966725e-2 l -2.4319799256155572e-2,-3.303024633929398e-3 l -4.8713334125804586e-2,-6.008216707416028e-3 l -2.4393534869649014e-2,-2.7051920734848535e-3 l -0.19509032201612797,-1.921471959676958e-2 l -2.4452576729880715e-2,-2.1057300064928355e-3 l -4.89494660021457e-2,-3.6107295329763675e-3 l -2.4496889272264982e-2,-1.5049995264835318e-3 l -9.801714032956088e-2,-4.815273327802855e-3 l -2.4526445804506247e-2,-9.033624910319575e-4 l -4.9067674327415184e-2,-1.204543794827376e-3 l -2.4541228522908937e-2,-3.011813037954185e-4 l -1.0,-6.123233995736766e-17 l -2.4541228522945158e-2,3.011813037971918e-4 l -4.906767432741521e-2,1.2045437948291463e-3 l -2.4526445804470054e-2,9.033624910301781e-4 l -9.801714032956088e-2,4.815273327802843e-3 l -2.449688927226501e-2,1.5049995264835288e-3 l -4.894946600214567e-2,3.6107295329763614e-3 l -2.445257672988066e-2,2.105730006492833e-3 l -0.19509032201612797,1.921471959676956e-2 l -2.4393534869649125e-2,2.705192073484851e-3 l -4.8713334125804586e-2,6.008216707416023e-3 l -2.431979925615546e-2,3.3030246339311718e-3 l -9.707318168656709e-2,1.4399446268966715e-2 l -2.423141430490028e-2,3.8988675758346845e-3 l -4.83598475607625e-2,8.391229561548027e-3 l -2.4128433255862225e-2,4.4923619857168955e-3 l -0.3826834323650894,7.612046748871301e-2 l -2.4010918140775495e-2,5.083150364708187e-3 l -4.7889857887131404e-2,1.075402720868723e-2 l -2.3878939746355687e-2,5.67087684397549e-3 l -9.519435523833342e-2,2.3844944671020933e-2 l -2.3732577571624613e-2,6.255187399101912e-3 l -4.730449735120246e-2,1.309091746233548e-2 l -2.35719197795774e-2,6.835730063233568e-3 l -0.18759311034896142,5.6905747891943456e-2 l -2.339706314443779e-2,7.412155139174812e-3 l -4.660517613775994e-2,1.5396270549189236e-2 l -2.3208112993323038e-2,7.984115410014423e-3 l -9.2398755110628e-2,3.306080322092252e-2 l -2.300518314275468e-2,8.551266348277407e-3 l -4.579357897286718e-2,1.76645326717324e-2 l -2.2788395830112496e-2,9.113266323456768e-3 l -0.7071067811865475,0.29289321881345204 l -2.2557881639886812e-2,9.669776807749384e-3 l -4.487166106519336e-2,1.9890239387843064e-2 l -2.2313779425306546e-2,1.022046258009368e-2 l -8.871330446090653e-2,4.195826816293113e-2 l -2.2056236224310855e-2,1.0764991927921129e-2 l -4.384164339571317e-2,2.2068028775086287e-2 l -2.1785407171402316e-2,1.1303036847165158e-2 l -0.17288680065451434,9.240992020874204e-2 l -2.1501455403790004e-2,1.1834273239646363e-2 l -4.270600736722008e-2,2.419265434808082e-2 l -2.120455196342963e-2,1.2358381108434456e-2 l -8.417349619360781e-2,5.045165204581092e-2 l -2.089487569384918e-2,1.2875044750549234e-2 l -4.146748882638773e-2,2.625899769772921e-2 l -2.0572613132538997e-2,1.3383952947181752e-2 l -0.32442334882145785,0.21677275132473992 l -2.023795839824949e-2,1.388479915096674e-2 l -4.0129071472835065e-2,2.826208082190362e-2 l -1.9891113074585576e-2,1.437728167093688e-2 l -7.882305114404309e-2,5.84591589398089e-2 l -1.9532286088200124e-2,1.4861103854043376e-2 l -3.869397967120758e-2,3.019707811790528e-2 l -1.9161693583008343e-2,1.533597426385924e-2 l -0.15153654816694395,0.12436283111599698 l -1.8779558790135376e-2,1.5801606856257422e-2 l -3.716567068337007e-2,3.205932800777589e-2 l -1.838611189323469e-2,1.6257721151518467e-2 l -7.271349702290086e-2,6.590367217618809e-2 l -1.798158989004417e-2,1.6704042403487662e-2 l -3.554782633953035e-2,3.38443441684122e-2 l -1.7566236449486183e-2,1.714030176492365e-2 l -1.0,0.9999999999999999 l -1.7140301764915655e-2,1.7566236449476413e-2 l -3.3844344168414864e-2,3.554782633953213e-2 l -1.670404240349921e-2,1.7981589890055716e-2 l -6.590367217618986e-2,7.271349702290308e-2 l -1.6257721151525573e-2,1.8386111893242685e-2 l -3.205932800777589e-2,3.7165670683370955e-2 l -1.5801606856250316e-2,1.877955879012827e-2 l -0.12436283111599701,0.15153654816694484 l -1.533597426387612e-2,1.9161693583027883e-2 l -3.0197078117907065e-2,3.869397967121202e-2 l -1.4861103854030945e-2,1.9532286088184136e-2 l -5.845915893980714e-2,7.882305114404176e-2 l -1.4377281670931554e-2,1.9891113074577582e-2 l -2.8262080821900074e-2,4.0129071472829736e-2 l -1.388479915096852e-2,2.0237958398252154e-2 l -0.21677275132473953,0.3244233488214574 l -1.338395294716488e-2,2.0572613132510575e-2 l -2.625899769772744e-2,4.146748882638196e-2 l -1.287504475056256e-2,2.0894875693871384e-2 l -5.045165204581004e-2,8.417349619360515e-2 l -1.2358381108438012e-2,2.120455196343496e-2 l -2.4192654348082602e-2,4.270600736722319e-2 l -1.183427323964459e-2,2.1501455403788228e-2 l -9.240992020874207e-2,0.17288680065451345 l -1.1303036847159833e-2,2.1785407171390325e-2 l -2.206802877508807e-2,4.3841643395714947e-2 l -1.0764991927928238e-2,2.205623622432462e-2 l -4.195826816293203e-2,8.87133044609083e-2 l -1.0220462580086577e-2,2.231377942529189e-2 l -1.989023938784396e-2,4.487166106519336e-2 l -9.669776807757382e-3,2.2557881639901467e-2 l -0.2928932188134526,0.7071067811865479 l -9.113266323458548e-3,2.2788395830115604e-2 l -1.7664532671732406e-2,4.579357897286762e-2 l -8.551266348275634e-3,2.3005183142752017e-2 l -3.306080322092431e-2,9.239875511063289e-2 l -7.984115410018868e-3,2.320811299333947e-2 l -1.5396270549190131e-2,4.660517613776527e-2 l -7.412155139171263e-3,2.33970631444258e-2 l -5.6905747891942596e-2,0.18759311034896164 l -6.8357300632309066e-3,2.3571919779564077e-2 l -1.309091746233371e-2,4.730449735119446e-2 l -6.255187399103692e-3,2.3732577571630387e-2 l -2.384494467102006e-2,9.519435523832875e-2 l -5.670876843982599e-3,2.3878939746388994e-2 l -1.0754027208686349e-2,4.788985788713429e-2 l -5.0831503647028615e-3,2.4010918140745297e-2 l -7.612046748871307e-2,0.3826834323650896 l -4.492361985708905e-3,2.412843325581715e-2 l -8.391229561550698e-3,4.8359847560764724e-2 l -3.8988675758417925e-3,2.4231414304947574e-2 l -1.4399446268965837e-2,9.707318168656265e-2 l -3.303024633930286e-3,2.4319799256154795e-2 l -6.00821670741514e-3,4.8713334125797925e-2 l -2.7051920734848535e-3,2.439353486964313e-2 l -1.9214719596770468e-2,0.19509032201612797 l -2.1057300064928355e-3,2.445257672988177e-2 l -3.6107295329763675e-3,4.894946600214345e-2 l -1.5049995264835318e-3,2.449688927226168e-2 l -4.8152733278037435e-3,9.801714032956532e-2 l -9.033624910319575e-4,2.452644580451624e-2 l -1.204543794827376e-3,4.906767432742187e-2 l -3.011813037954185e-4,2.4541228522905634e-2 l -6.123233995736766e-17,1.0 l 3.82856869892695e-16,0.9999999999999996 l 4.815273327802843e-3,9.801714032955999e-2 l 1.921471959676956e-2,0.19509032201612886 l 1.4399446268966715e-2,9.707318168656887e-2 l 7.61204674887139e-2,0.38268343236509095 l 2.384494467102182e-2,9.519435523833536e-2 l 5.6905747891944344e-2,0.1875931103489621 l 3.306080322092252e-2,9.239875511062673e-2 l 0.2928932188134538,0.7071067811865474 l 4.195826816293113e-2,8.871330446090553e-2 l 9.240992020874116e-2,0.17288680065451212 l 5.045165204581003e-2,8.41734961936067e-2 l 0.21677275132473903,0.3244233488214564 l 5.845915893981068e-2,7.882305114404509e-2 l 0.12436283111599787,0.15153654816694417 l 6.59036721761872e-2,7.271349702289909e-2 l 1.0000000000000004,0.9999999999999997 l 7.27134970229022e-2,6.590367217619075e-2 l 0.15153654816694573,0.12436283111599745 l 7.882305114404176e-2,5.8459158939806695e-2 l 0.3244233488214574,0.21677275132473908 l 8.417349619360426e-2,5.04516520458096e-2 l 0.17288680065451256,9.240992020874163e-2 l 8.87133044609083e-2,4.195826816293203e-2 l 0.7071067811865475,0.29289321881345226 l 9.239875511062667e-2,3.306080322092165e-2 l 0.18759311034896164,5.690574789194393e-2 l 9.519435523833542e-2,2.3844944671021835e-2 l 0.3826834323650896,7.612046748871307e-2 l 9.707318168656753e-2,1.4399446268966725e-2 l 0.19509032201612841,1.921471959676958e-2 l 9.801714032956088e-2,4.815273327802855e-3 l 0.9999999999999991,-1.6081226496766368e-16 l 0.9999999999999896,-5.267838178243385e-15 l 0.9999999999999948,-0.999999999999995 l 4.724169043383024e-15,-0.999999999999984 " /><path d="M 1.9999999999999996,2.0000000000000004 l 1.0,5.053215498074303e-16 l 0.3826834323650905,-7.612046748871301e-2 l 0.7071067811865475,-0.29289321881345226 l 0.3244233488214574,-0.2167727513247388 l 1.0000000000000004,-0.9999999999999994 l 0.21677275132473908,-0.3244233488214585 l 0.29289321881345215,-0.7071067811865474 l 7.612046748871307e-2,-0.38268343236508895 l 5.053215498074303e-16,-1.0000000000000004 l 6.123233995736766e-17,-1.0 l -1.20454379482737e-3,-4.906767432741521e-2 l -4.815273327802843e-3,-9.801714032956044e-2 l -3.6107295329754732e-3,-4.8949466002145225e-2 l -1.921471959676956e-2,-0.19509032201612886 l -6.008216707416023e-3,-4.871333412580281e-2 l -1.4399446268966715e-2,-9.707318168656842e-2 l -8.391229561550691e-3,-4.835984756076561e-2 l -7.612046748871346e-2,-0.38268343236509006 l -1.0754027208684565e-2,-4.788985788712763e-2 l -2.3844944671020045e-2,-9.519435523833097e-2 l -1.3090917462336368e-2,-4.7304497351203345e-2 l -5.690574789194301e-2,-0.1875931103489612 l -1.539627054918746e-2,-4.660517613775905e-2 l -3.306080322092252e-2,-9.239875511062934e-2 l -1.7664532671735064e-2,-4.579357897287206e-2 l -0.2928932188134525,-0.7071067811865475 l -1.9890239387841287e-2,-4.487166106518625e-2 l -4.1958268162932015e-2,-8.871330446091008e-2 l -2.2068028775092504e-2,-4.384164339572383e-2 l -9.240992020874249e-2,-0.17288680065451345 l -2.419265434808526e-2,-4.2706007367229404e-2 l -5.045165204581003e-2,-8.417349619360337e-2 l -2.6258997697722993e-2,-4.1467488826373966e-2 l -0.21677275132473903,-0.3244233488214565 l -2.8262080821900067e-2,-4.0129071472829736e-2 l -5.8459158939807125e-2,-7.882305114404176e-2 l -3.0197078117907058e-2,-3.869397967121202e-2 l -0.12436283111599698,-0.15153654816694484 l -3.2059328007778554e-2,-3.716567068337273e-2 l -6.590367217619031e-2,-7.271349702290308e-2 l -3.384434416841131e-2,-3.554782633953035e-2 l -0.9999999999999999,-1.0 l -3.554782633953035e-2,-3.38443441684122e-2 l -7.271349702290175e-2,-6.590367217618898e-2 l -3.71656706833714e-2,-3.205932800777678e-2 l -0.1515365481669444,-0.12436283111599701 l -3.869397967121113e-2,-3.0197078117907065e-2 l -7.882305114404264e-2,-5.845915893980803e-2 l -4.012907147283151e-2,-2.8262080821900962e-2 l -0.32442334882145807,-0.21677275132473997 l -4.1467488826385956e-2,-2.6258997697729217e-2 l -8.417349619360603e-2,-5.045165204581004e-2 l -4.270600736722008e-2,-2.4192654348080826e-2 l -0.17288680065451367,-9.240992020874207e-2 l -4.3841643395712726e-2,-2.2068028775086294e-2 l -8.871330446090786e-2,-4.195826816293203e-2 l -4.4871661065195134e-2,-1.9890239387844847e-2 l -0.7071067811865475,-0.29289321881345215 l -4.579357897286762e-2,-1.7664532671734182e-2 l -9.2398755110628e-2,-3.306080322092254e-2 l -4.6605176137760385e-2,-1.5396270549189243e-2 l -0.18759311034896142,-5.6905747891943484e-2 l -4.730449735120201e-2,-1.3090917462337263e-2 l -9.519435523833342e-2,-2.3844944671020947e-2 l -4.7889857887131404e-2,-1.075402720868546e-2 l -0.3826834323650894,-7.612046748871307e-2 l -4.83598475607625e-2,-8.391229561551587e-3 l -9.707318168656709e-2,-1.4399446268966725e-2 l -4.8713334125804586e-2,-6.008216707416028e-3 l -0.19509032201612797,-1.921471959676958e-2 l -4.89494660021457e-2,-3.6107295329763675e-3 l -9.801714032956088e-2,-4.815273327802855e-3 l -4.9067674327415184e-2,-1.204543794827376e-3 l -1.0,-6.123233995736766e-17 l -4.906767432741521e-2,1.2045437948291463e-3 l -9.801714032956088e-2,4.815273327802843e-3 l -4.894946600214567e-2,3.6107295329763614e-3 l -0.19509032201612797,1.921471959676956e-2 l -4.8713334125804586e-2,6.008216707416023e-3 l -9.707318168656709e-2,1.4399446268966715e-2 l -4.83598475607625e-2,8.391229561548027e-3 l -0.3826834323650894,7.612046748871301e-2 l -4.7889857887131404e-2,1.075402720868723e-2 l -9.519435523833342e-2,2.3844944671020933e-2 l -4.730449735120246e-2,1.309091746233548e-2 l -0.18759311034896142,5.6905747891943456e-2 l -4.660517613775994e-2,1.5396270549189236e-2 l -9.2398755110628e-2,3.306080322092252e-2 l -4.579357897286718e-2,1.76645326717324e-2 l -0.7071067811865475,0.29289321881345204 l -4.487166106519336e-2,1.9890239387843064e-2 l -8.871330446090653e-2,4.195826816293113e-2 l -4.384164339571317e-2,2.2068028775086287e-2 l -0.17288680065451434,9.240992020874204e-2 l -4.270600736722008e-2,2.419265434808082e-2 l -8.417349619360781e-2,5.045165204581092e-2 l -4.146748882638773e-2,2.625899769772921e-2 l -0.32442334882145785,0.21677275132473992 l -4.0129071472835065e-2,2.826208082190362e-2 l -7.882305114404309e-2,5.84591589398089e-2 l -3.869397967120758e-2,3.019707811790528e-2 l -0.15153654816694395,0.12436283111599698 l -3.716567068337007e-2,3.205932800777589e-2 l -7.271349702290086e-2,6.590367217618809e-2 l -3.554782633953035e-2,3.38443441684122e-2 l -1.0,0.9999999999999999 l -3.3844344168414864e-2,3.554782633953213e-2 l -6.590367217618986e-2,7.271349702290308e-2 l -3.205932800777589e-2,3.7165670683370955e-2 l -0.12436283111599701,0.15153654816694484 l -3.0197078117907065e-2,3.869397967121202e-2 l -5.845915893980714e-2,7.882305114404176e-2 l -2.8262080821900074e-2,4.0129071472829736e-2 l -0.21677275132473953,0.3244233488214574 l -2.625899769772744e-2,4.146748882638196e-2 l -5.045165204581004e-2,8.417349619360515e-2 l -2.4192654348082602e-2,4.270600736722319e-2 l -9.240992020874207e-2,0.17288680065451345 l -2.206802877508807e-2,4.3841643395714947e-2 l -4.195826816293203e-2,8.87133044609083e-2 l -1.989023938784396e-2,4.487166106519336e-2 l -0.2928932188134526,0.7071067811865479 l -1.7664532671732406e-2,4.579357897286762e-2 l -3.306080322092431e-2,9.239875511063289e-2 l -1.5396270549190131e-2,4.660517613776527e-2 l -5.6905747891942596e-2,0.18759311034896164 l -1.309091746233371e-2,4.730449735119446e-2 l -2.384494467102006e-2,9.519435523832875e-2 l -1.0754027208686349e-2,4.788985788713429e-2 l -7.612046748871307e-2,0.3826834323650896 l -8.391229561550698e-3,4.8359847560764724e-2 l -1.4399446268965837e-2,9.707318168656265e-2 l -6.00821670741514e-3,4.8713334125797925e-2 l -1.9214719596770468e-2,0.19509032201612797 l -3.6107295329763675e-3,4.894946600214345e-2 l -4.8152733278037435e-3,9.801714032956532e-2 l -1.204543794827376e-3,4.906767432742187e-2 l -6.123233995736766e-17,1.0 l 3.82856869892695e-16,0.9999999999999996 l 1.921471959676956e-2,0.19509032201612886 l 7.61204674887139e-2,0.38268343236509095 l 5.6905747891944344e-2,0.1875931103489621 l 0.2928932188134538,0.7071067811865474 l 9.240992020874116e-2,0.17288680065451212 l 0.21677275132473903,0.3244233488214564 l 0.12436283111599787,0.15153654816694417 l 1.0000000000000004,0.9999999999999997 l 0.15153654816694573,0.12436283111599745 l 0.3244233488214574,0.21677275132473908 l 0.17288680065451256,9.240992020874163e-2 l 0.7071067811865475,0.29289321881345226 l 0.18759311034896164,5.690574789194393e-2 l 0.3826834323650896,7.612046748871307e-2 l 0.19509032201612841,1.921471959676958e-2 l 0.9999999999999991,-1.6081226496766368e-16 l 0.9999999999999896,-5.267838178243385e-15 l 4.724169043383024e-15,-0.999999999999984 " /><path d="M 1.9999999999999998,1.0000000000000004 l 1.0,5.053215498074303e-16 l 0.7071067811865475,-0.29289321881345226 l 1.0000000000000004,-0.9999999999999994 l 0.29289321881345215,-0.7071067811865474 l 5.053215498074303e-16,-1.0000000000000004 l 6.123233995736766e-17,-1.0 l -4.815273327802843e-3,-9.801714032956044e-2 l -1.921471959676956e-2,-0.19509032201612886 l -1.4399446268966715e-2,-9.707318168656842e-2 l -7.612046748871346e-2,-0.38268343236509006 l -2.3844944671020045e-2,-9.519435523833097e-2 l -5.690574789194301e-2,-0.1875931103489612 l -3.306080322092252e-2,-9.239875511062934e-2 l -0.2928932188134525,-0.7071067811865475 l -4.1958268162932015e-2,-8.871330446091008e-2 l -9.240992020874249e-2,-0.17288680065451345 l -5.045165204581003e-2,-8.417349619360337e-2 l -0.21677275132473903,-0.3244233488214565 l -5.8459158939807125e-2,-7.882305114404176e-2 l -0.12436283111599698,-0.15153654816694484 l -6.590367217619031e-2,-7.271349702290308e-2 l -0.9999999999999999,-1.0 l -7.271349702290175e-2,-6.590367217618898e-2 l -0.1515365481669444,-0.12436283111599701 l -7.882305114404264e-2,-5.845915893980803e-2 l -0.32442334882145807,-0.21677275132473997 l -8.417349619360603e-2,-5.045165204581004e-2 l -0.17288680065451367,-9.240992020874207e-2 l -8.871330446090786e-2,-4.195826816293203e-2 l -0.7071067811865475,-0.29289321881345215 l -9.2398755110628e-2,-3.306080322092254e-2 l -0.18759311034896142,-5.6905747891943484e-2 l -9.519435523833342e-2,-2.3844944671020947e-2 l -0.3826834323650894,-7.612046748871307e-2 l -9.707318168656709e-2,-1.4399446268966725e-2 l -0.19509032201612797,-1.921471959676958e-2 l -9.801714032956088e-2,-4.815273327802855e-3 l -1.0,-6.123233995736766e-17 l -9.801714032956088e-2,4.815273327802843e-3 l -0.19509032201612797,1.921471959676956e-2 l -9.707318168656709e-2,1.4399446268966715e-2 l -0.3826834323650894,7.612046748871301e-2 l -9.519435523833342e-2,2.3844944671020933e-2 l -0.18759311034896142,5.6905747891943456e-2 l -9.2398755110628e-2,3.306080322092252e-2 l -0.7071067811865475,0.29289321881345204 l -8.871330446090653e-2,4.195826816293113e-2 l -0.17288680065451434,9.240992020874204e-2 l -8.417349619360781e-2,5.045165204581092e-2 l -0.32442334882145785,0.21677275132473992 l -7.882305114404309e-2,5.84591589398089e-2 l -0.15153654816694395,0.12436283111599698 l -7.271349702290086e-2,6.590367217618809e-2 l -1.0,0.9999999999999999 l -6.590367217618986e-2,7.271349702290308e-2 l -0.12436283111599701,0.15153654816694484 l -5.845915893980714e-2,7.882305114404176e-2 l -0.21677275132473953,0.3244233488214574 l -5.045165204581004e-2,8.417349619360515e-2 l -9.240992020874207e-2,0.17288680065451345 l -4.195826816293203e-2,8.87133044609083e-2 l -0.2928932188134526,0.7071067811865479 l -3.306080322092431e-2,9.239875511063289e-2 l -5.6905747891942596e-2,0.18759311034896164 l -2.384494467102006e-2,9.519435523832875e-2 l -7.612046748871307e-2,0.3826834323650896 l -1.4399446268965837e-2,9.707318168656265e-2 l -1.9214719596770468e-2,0.19509032201612797 l -4.8152733278037435e-3,9.801714032956532e-2 l -6.123233995736766e-17,1.0 l 3.82856869892695e-16,0.9999999999999996 l 7.61204674887139e-2,0.38268343236509095 l 0.2928932188134538,0.7071067811865474 l 0.21677275132473903,0.3244233488214564 l 1.0000000000000004,0.9999999999999997 l 0.3244233488214574,0.21677275132473908 l 0.7071067811865475,0.29289321881345226 l 0.3826834323650896,7.612046748871307e-2 l 0.9999999999999991,-1.6081226496766368e-16 " /><path d="M 2.0,4.898587196589413e-16 l 1.0,5.053215498074303e-16 l 1.0000000000000004,-0.9999999999999994 l 5.053215498074303e-16,-1.0000000000000004 l 6.123233995736766e-17,-1.0 l -1.921471959676956e-2,-0.19509032201612886 l -7.612046748871346e-2,-0.38268343236509006 l -5.690574789194301e-2,-0.1875931103489612 l -0.2928932188134525,-0.7071067811865475 l -9.240992020874249e-2,-0.17288680065451345 l -0.21677275132473903,-0.3244233488214565 l -0.12436283111599698,-0.15153654816694484 l -0.9999999999999999,-1.0 l -0.1515365481669444,-0.12436283111599701 l -0.32442334882145807,-0.21677275132473997 l -0.17288680065451367,-9.240992020874207e-2 l -0.7071067811865475,-0.29289321881345215 l -0.18759311034896142,-5.6905747891943484e-2 l -0.3826834323650894,-7.612046748871307e-2 l -0.19509032201612797,-1.921471959676958e-2 l -1.0,-6.123233995736766e-17 l -0.19509032201612797,1.921471959676956e-2 l -0.3826834323650894,7.612046748871301e-2 l -0.18759311034896142,5.6905747891943456e-2 l -0.7071067811865475,0.29289321881345204 l -0.17288680065451434,9.240992020874204e-2 l -0.32442334882145785,0.21677275132473992 l -0.15153654816694395,0.12436283111599698 l -1.0,0.9999999999999999 l -0.12436283111599701,0.15153654816694484 l -0.21677275132473953,0.3244233488214574 l -9.240992020874207e-2,0.17288680065451345 l -0.2928932188134526,0.7071067811865479 l -5.6905747891942596e-2,0.18759311034896164 l -7.612046748871307e-2,0.3826834323650896 l -1.9214719596770468e-2,0.19509032201612797 l -6.123233995736766e-17,1.0 l 3.82856869892695e-16,0.9999999999999996 l 0.2928932188134538,0.7071067811865474 l 1.0000000000000004,0.9999999999999997 l 0.7071067811865475,0.29289321881345226 l 0.9999999999999991,-1.6081226496766368e-16 " /><path d="M 2.0,-0.9999999999999996 l 1.0,5.053215498074303e-16 l 5.053215498074303e-16,-1.0000000000000004 l 6.123233995736766e-17,-1.0 l -7.612046748871346e-2,-0.38268343236509006 l -0.2928932188134525,-0.7071067811865475 l -0.21677275132473903,-0.3244233488214565 l -0.9999999999999999,-1.0 l -0.32442334882145807,-0.21677275132473997 l -0.7071067811865475,-0.29289321881345215 l -0.3826834323650894,-7.612046748871307e-2 l -1.0,-6.123233995736766e-17 l -0.3826834323650894,7.612046748871301e-2 l -0.7071067811865475,0.29289321881345204 l -0.32442334882145785,0.21677275132473992 l -1.0,0.9999999999999999 l -0.21677275132473953,0.3244233488214574 l -0.2928932188134526,0.7071067811865479 l -7.612046748871307e-2,0.3826834323650896 l -6.123233995736766e-17,1.0 l 3.82856869892695e-16,0.9999999999999996 l 1.0000000000000004,0.9999999999999997 l 0.9999999999999991,-1.6081226496766368e-16 " /><path d="M 2.0000000000000004,-1.9999999999999993 l 6.123233995736766e-17,-1.0 l -0.2928932188134525,-0.7071067811865475 l -0.9999999999999999,-1.0 l -0.7071067811865475,-0.29289321881345215 l -1.0,-6.123233995736766e-17 l -0.7071067811865475,0.29289321881345204 l -1.0,0.9999999999999999 l -0.2928932188134526,0.7071067811865479 l -6.123233995736766e-17,1.0 l 3.82856869892695e-16,0.9999999999999996 l 0.9999999999999991,-1.6081226496766368e-16 " /><path d="M 1.0000000000000007,-1.9999999999999998 l 6.123233995736766e-17,-1.0 l -0.9999999999999999,-1.0 l -1.0,-6.123233995736766e-17 l -1.0,0.9999999999999999 l -6.123233995736766e-17,1.0 " /><path d="M 1.2246467991473532e-16,-2.0 l 6.123233995736766e-17,-1.0 l -1.0,-6.123233995736766e-17 l -6.123233995736766e-17,1.0 " /></g><g stroke="rgb(0,128,0)" stroke-opacity="1.0" fill-opacity="0.0" stroke-width="0.1"><g fill-opacity="0.0"><g fill="rgb(255,0,0)" fill-opacity="1.0"><path d="M 1.0100000000000005,-1.9999999999999998 c 1.3527075021963559e-18,-5.522847498307935e-3 -4.477152501692062e-3,-1.0000000000000002e-2 -9.999999999999997e-3 -1.0000000000000002e-2c -5.522847498307935e-3,-1.6908843777454448e-18 -1.0000000000000002e-2,4.477152501692061e-3 -1.0000000000000002e-2 9.999999999999995e-3c -2.0290612532945338e-18,5.522847498307935e-3 4.477152501692061e-3,1.0000000000000002e-2 9.999999999999993e-3 1.0000000000000002e-2c 5.522847498307935e-3,2.3672381288436228e-18 1.0000000000000002e-2,-4.47715250169206e-3 1.0000000000000004e-2 -9.999999999999995e-3Z" /></g><g fill="rgb(255,0,0)" fill-opacity="1.0"><path d="M 2.0100000000000002,-1.9999999999999996 c 1.3527075021963559e-18,-5.522847498307935e-3 -4.477152501692062e-3,-1.0000000000000002e-2 -9.999999999999997e-3 -1.0000000000000002e-2c -5.522847498307935e-3,-1.6908843777454448e-18 -1.0000000000000002e-2,4.477152501692061e-3 -1.0000000000000002e-2 9.999999999999995e-3c -2.0290612532945338e-18,5.522847498307935e-3 4.477152501692061e-3,1.0000000000000002e-2 9.999999999999993e-3 1.0000000000000002e-2c 5.522847498307935e-3,2.3672381288436228e-18 1.0000000000000002e-2,-4.47715250169206e-3 1.0000000000000004e-2 -9.999999999999995e-3Z" /></g><g fill="rgb(255,0,0)" fill-opacity="1.0"><path d="M 2.0100000000000002,-0.9999999999999996 c 1.3527075021963559e-18,-5.522847498307935e-3 -4.477152501692062e-3,-1.0000000000000002e-2 -9.999999999999997e-3 -1.0000000000000002e-2c -5.522847498307935e-3,-1.6908843777454448e-18 -1.0000000000000002e-2,4.477152501692061e-3 -1.0000000000000002e-2 9.999999999999995e-3c -2.0290612532945338e-18,5.522847498307935e-3 4.477152501692061e-3,1.0000000000000002e-2 9.999999999999993e-3 1.0000000000000002e-2c 5.522847498307935e-3,2.3672381288436228e-18 1.0000000000000002e-2,-4.47715250169206e-3 1.0000000000000004e-2 -9.999999999999995e-3Z" /></g><g fill="rgb(255,0,0)" fill-opacity="1.0"><path d="M 2.01,4.92308013257236e-16 c 1.3527075021963559e-18,-5.522847498307935e-3 -4.477152501692062e-3,-1.0000000000000002e-2 -9.999999999999997e-3 -1.0000000000000002e-2c -5.522847498307935e-3,-1.6908843777454448e-18 -1.0000000000000002e-2,4.477152501692061e-3 -1.0000000000000002e-2 9.999999999999995e-3c -2.0290612532945338e-18,5.522847498307935e-3 4.477152501692061e-3,1.0000000000000002e-2 9.999999999999993e-3 1.0000000000000002e-2c 5.522847498307935e-3,2.3672381288436228e-18 1.0000000000000002e-2,-4.47715250169206e-3 1.0000000000000004e-2 -9.999999999999995e-3Z" /></g><path d="M 2.0000000000000004,-0.9999999999999996 l -1.0,-2.4492935982947064e-16 l 2.4492935982947064e-16,-1.0 " /><path d="M 0.0,0.0 l 4.898587196589413e-16,-2.0 " /></g><g fill-opacity="0.0"><g fill="rgb(255,0,0)" fill-opacity="1.0"><path d="M 1.9999999999999998,1.0100000000000005 c 5.522847498307935e-3,1.0145306266472667e-18 1.0e-2,-4.477152501692063e-3 1.0000000000000002e-2 -9.999999999999997e-3c 1.3527075021963557e-18,-5.522847498307935e-3 -4.477152501692062e-3,-1.0e-2 -9.999999999999995e-3 -1.0000000000000002e-2c -5.522847498307935e-3,-1.6908843777454446e-18 -1.0e-2,4.477152501692062e-3 -1.0000000000000002e-2 9.999999999999993e-3c -2.0290612532945338e-18,5.522847498307935e-3 4.477152501692061e-3,1.0e-2 9.999999999999995e-3 1.0000000000000004e-2Z" /></g><g fill="rgb(255,0,0)" fill-opacity="1.0"><path d="M 1.9999999999999996,2.0100000000000002 c 5.522847498307935e-3,1.0145306266472667e-18 1.0e-2,-4.477152501692063e-3 1.0000000000000002e-2 -9.999999999999997e-3c 1.3527075021963557e-18,-5.522847498307935e-3 -4.477152501692062e-3,-1.0e-2 -9.999999999999995e-3 -1.0000000000000002e-2c -5.522847498307935e-3,-1.6908843777454446e-18 -1.0e-2,4.477152501692062e-3 -1.0000000000000002e-2 9.999999999999993e-3c -2.0290612532945338e-18,5.522847498307935e-3 4.477152501692061e-3,1.0e-2 9.999999999999995e-3 1.0000000000000004e-2Z" /></g><g fill="rgb(255,0,0)" fill-opacity="1.0"><path d="M 0.9999999999999997,2.01 c 5.522847498307935e-3,1.0145306266472667e-18 1.0e-2,-4.477152501692063e-3 1.0000000000000002e-2 -9.999999999999997e-3c 1.3527075021963557e-18,-5.522847498307935e-3 -4.477152501692062e-3,-1.0e-2 -9.999999999999995e-3 -1.0000000000000002e-2c -5.522847498307935e-3,-1.6908843777454446e-18 -1.0e-2,4.477152501692062e-3 -1.0000000000000002e-2 9.999999999999993e-3c -2.0290612532945338e-18,5.522847498307935e-3 4.477152501692061e-3,1.0e-2 9.999999999999995e-3 1.0000000000000004e-2Z" /></g><g fill="rgb(255,0,0)" fill-opacity="1.0"><path d="M -3.6923100994292695e-16,2.01 c 5.522847498307935e-3,1.0145306266472667e-18 1.0e-2,-4.477152501692063e-3 1.0000000000000002e-2 -9.999999999999997e-3c 1.3527075021963557e-18,-5.522847498307935e-3 -4.477152501692062e-3,-1.0e-2 -9.999999999999995e-3 -1.0000000000000002e-2c -5.522847498307935e-3,-1.6908843777454446e-18 -1.0e-2,4.477152501692062e-3 -1.0000000000000002e-2 9.999999999999993e-3c -2.0290612532945338e-18,5.522847498307935e-3 4.477152501692061e-3,1.0e-2 9.999999999999995e-3 1.0000000000000004e-2Z" /></g><path d="M 0.9999999999999997,2.0 l 1.8369701987210297e-16,-1.0 l 1.0,1.8369701987210297e-16 " /><path d="M 0.0,0.0 l 2.0,3.6739403974420594e-16 " /></g><g fill-opacity="0.0"><g fill="rgb(255,0,0)" fill-opacity="1.0"><path d="M -1.0100000000000002,1.9999999999999998 c -6.763537510981779e-19,5.522847498307935e-3 4.477152501692064e-3,1.0e-2 9.999999999999997e-3 1.0000000000000002e-2c 5.522847498307935e-3,1.0145306266472669e-18 1.0e-2,-4.477152501692063e-3 1.0000000000000002e-2 -9.999999999999995e-3c 1.3527075021963559e-18,-5.522847498307935e-3 -4.477152501692063e-3,-1.0e-2 -9.999999999999993e-3 -1.0000000000000002e-2c -5.522847498307935e-3,-1.6908843777454448e-18 -1.0e-2,4.477152501692062e-3 -1.0000000000000004e-2 9.999999999999995e-3Z" /></g><g fill="rgb(255,0,0)" fill-opacity="1.0"><path d="M -2.0100000000000002,1.9999999999999998 c -6.763537510981779e-19,5.522847498307935e-3 4.477152501692064e-3,1.0e-2 9.999999999999997e-3 1.0000000000000002e-2c 5.522847498307935e-3,1.0145306266472669e-18 1.0e-2,-4.477152501692063e-3 1.0000000000000002e-2 -9.999999999999995e-3c 1.3527075021963559e-18,-5.522847498307935e-3 -4.477152501692063e-3,-1.0e-2 -9.999999999999993e-3 -1.0000000000000002e-2c -5.522847498307935e-3,-1.6908843777454448e-18 -1.0e-2,4.477152501692062e-3 -1.0000000000000004e-2 9.999999999999995e-3Z" /></g><g fill="rgb(255,0,0)" fill-opacity="1.0"><path d="M -2.01,0.9999999999999998 c -6.763537510981779e-19,5.522847498307935e-3 4.477152501692064e-3,1.0e-2 9.999999999999997e-3 1.0000000000000002e-2c 5.522847498307935e-3,1.0145306266472669e-18 1.0e-2,-4.477152501692063e-3 1.0000000000000002e-2 -9.999999999999995e-3c 1.3527075021963559e-18,-5.522847498307935e-3 -4.477152501692063e-3,-1.0e-2 -9.999999999999993e-3 -1.0000000000000002e-2c -5.522847498307935e-3,-1.6908843777454448e-18 -1.0e-2,4.477152501692062e-3 -1.0000000000000004e-2 9.999999999999995e-3Z" /></g><g fill="rgb(255,0,0)" fill-opacity="1.0"><path d="M -2.01,-2.46154006628618e-16 c -6.763537510981779e-19,5.522847498307935e-3 4.477152501692064e-3,1.0e-2 9.999999999999997e-3 1.0000000000000002e-2c 5.522847498307935e-3,1.0145306266472669e-18 1.0e-2,-4.477152501692063e-3 1.0000000000000002e-2 -9.999999999999995e-3c 1.3527075021963559e-18,-5.522847498307935e-3 -4.477152501692063e-3,-1.0e-2 -9.999999999999993e-3 -1.0000000000000002e-2c -5.522847498307935e-3,-1.6908843777454448e-18 -1.0e-2,4.477152501692062e-3 -1.0000000000000004e-2 9.999999999999995e-3Z" /></g><path d="M -2.0,0.9999999999999998 l 1.0,1.2246467991473532e-16 l -1.2246467991473532e-16,1.0 " /><path d="M 0.0,0.0 l -2.4492935982947064e-16,2.0 " /></g><g fill-opacity="0.0"><g fill="rgb(255,0,0)" fill-opacity="1.0"><path d="M -2.0,-1.0100000000000002 c -5.522847498307935e-3,-3.3817687554908897e-19 -1.0e-2,4.477152501692064e-3 -1.0e-2 9.999999999999998e-3c -6.763537510981779e-19,5.522847498307935e-3 4.477152501692063e-3,1.0e-2 9.999999999999997e-3 1.0e-2c 5.522847498307935e-3,1.0145306266472669e-18 1.0e-2,-4.477152501692063e-3 1.0e-2 -9.999999999999995e-3c 1.3527075021963559e-18,-5.522847498307935e-3 -4.477152501692062e-3,-1.0e-2 -9.999999999999997e-3 -1.0000000000000002e-2Z" /></g><g fill="rgb(255,0,0)" fill-opacity="1.0"><path d="M -1.9999999999999998,-2.01 c -5.522847498307935e-3,-3.3817687554908897e-19 -1.0e-2,4.477152501692064e-3 -1.0e-2 9.999999999999998e-3c -6.763537510981779e-19,5.522847498307935e-3 4.477152501692063e-3,1.0e-2 9.999999999999997e-3 1.0e-2c 5.522847498307935e-3,1.0145306266472669e-18 1.0e-2,-4.477152501692063e-3 1.0e-2 -9.999999999999995e-3c 1.3527075021963559e-18,-5.522847498307935e-3 -4.477152501692062e-3,-1.0e-2 -9.999999999999997e-3 -1.0000000000000002e-2Z" /></g><g fill="rgb(255,0,0)" fill-opacity="1.0"><path d="M -0.9999999999999999,-2.01 c -5.522847498307935e-3,-3.3817687554908897e-19 -1.0e-2,4.477152501692064e-3 -1.0e-2 9.999999999999998e-3c -6.763537510981779e-19,5.522847498307935e-3 4.477152501692063e-3,1.0e-2 9.999999999999997e-3 1.0e-2c 5.522847498307935e-3,1.0145306266472669e-18 1.0e-2,-4.477152501692063e-3 1.0e-2 -9.999999999999995e-3c 1.3527075021963559e-18,-5.522847498307935e-3 -4.477152501692062e-3,-1.0e-2 -9.999999999999997e-3 -1.0000000000000002e-2Z" /></g><g fill="rgb(255,0,0)" fill-opacity="1.0"><path d="M 1.23077003314309e-16,-2.01 c -5.522847498307935e-3,-3.3817687554908897e-19 -1.0e-2,4.477152501692064e-3 -1.0e-2 9.999999999999998e-3c -6.763537510981779e-19,5.522847498307935e-3 4.477152501692063e-3,1.0e-2 9.999999999999997e-3 1.0e-2c 5.522847498307935e-3,1.0145306266472669e-18 1.0e-2,-4.477152501692063e-3 1.0e-2 -9.999999999999995e-3c 1.3527075021963559e-18,-5.522847498307935e-3 -4.477152501692062e-3,-1.0e-2 -9.999999999999997e-3 -1.0000000000000002e-2Z" /></g><path d="M -0.9999999999999999,-2.0 l -6.123233995736766e-17,1.0 l -1.0,-6.123233995736766e-17 " /><path d="M 0.0,0.0 l -2.0,-1.2246467991473532e-16 " /></g></g></g></g></g></svg>