<?xml version="1.0" encoding="UTF-8"?>
<!DOCTYPE svg PUBLIC "-//W3C//DTD SVG 1.1//EN"
    "http://www.w3.org/Graphics/SVG/1.1/DTD/svg11.dtd">
<svg xmlns="http://www.w3.org/2000/svg" xmlns:xlink="http://www.w3.org/1999/xlink" version="1.1" width="400.0" height="373.33333333333366" font-size="1" viewBox="0 0 400 373"><g><g stroke="rgb(0,0,0)" stroke-opacity="1.0" fill-opacity="0.0" stroke-width="1.0e-2" stroke-linecap="butt" stroke-linejoin="miter" font-size="1.0em" stroke-miterlimit="10.0"><g transform="matrix(26.666666666666668,0.0,0.0,26.666666666666668,213.33333333333331,266.6666666666667)"><g stroke="rgb(0,128,0)" stroke-opacity="1.0" fill-opacity="0.0" stroke-width="0.1"><path d="M 0.9999999999999997,2.0 l -5.053215498074303e-16,1.0 l 1.0,5.053215498074303e-16 l 1.0,5.053215498074303e-16 l 1.0,5.053215498074303e-16 l 1.0000000000000004,5.053215498074303e-16 l 1.0,6.123233995736766e-17 l 1.0,6.123233995736766e-17 l 6.123233995736766e-17,-1.0 l 6.123233995736765e-17,-0.9999999999999998 l 6.123233995736766e-17,-1.0 l 5.053215498074303e-16,-1.0 l 5.053215498074303e-16,-1.0000000000000004 l 6.123233995736766e-17,-1.0 l 6.123233995736766e-17,-1.0 l 6.123233995736766e-17,-1.0 l 6.123233995736766e-17,-1.0 l 6.123233995736766e-17,-1.0 l 6.123233995736766e-17,-1.0 l 6.123233995736771e-17,-1.0000000000000009 l 6.123233995736766e-17,-1.0 l -1.0,-6.123233995736766e-17 l -1.0,-6.123233995736766e-17 l -1.0,-6.123233995736766e-17 l -0.9999999999999996,-6.123233995736764e-17 l -1.0,-6.123233995736766e-17 l -1.0,-6.123233995736766e-17 l -1.0,-6.123233995736766e-17 l -1.0,-6.123233995736766e-17 l -1.0,-6.123233995736766e-17 l -1.0,-6.123233995736766e-17 l -1.0,-6.123233995736766e-17 l -1.0000000000000004,-6.123233995736769e-17 l -1.0,-6.123233995736766e-17 l -1.0,-6.123233995736766e-17 l -1.0,-6.123233995736766e-17 l -6.123233995736766e-17,1.0 l -6.123233995736771e-17,1.0000000000000009 l -6.123233995736766e-17,1.0 l -6.123233995736766e-17,1.0 l -6.123233995736766e-17,1.0 l -6.123233995736766e-17,1.0 l -6.123233995736766e-17,1.0 l -6.123233995736766e-17,1.0 l 3.82856869892695e-16,0.9999999999999996 l 3.82856869892695e-16,0.9999999999999993 l -6.123233995736762e-17,0.9999999999999993 l -6.123233995736766e-17,1.0 l -6.123233995736766e-17,1.0 l -6.123233995736766e-17,1.0 l 1.0,6.123233995736766e-17 l 1.0,6.123233995736766e-17 l 1.0,6.123233995736766e-17 l 0.9999999999999991,2.8327694488239893e-16 l 0.9999999999999991,2.8327694488239893e-16 l 0.9999999999999991,2.8327694488239893e-16 l 1.000000000000001,3.6139460187578685e-15 l 1.0000000000000013,3.6139460187578685e-15 l 2.2816783892076807e-15,-1.0000000000000013 l 2.281678389207681e-15,-1.0000000000000044 " /><path d="M 1.9999999999999996,2.0000000000000004 l 1.0,5.053215498074303e-16 l 1.0,5.053215498074303e-16 l 1.0000000000000004,5.053215498074303e-16 l 1.0,6.123233995736766e-17 l 6.123233995736765e-17,-0.9999999999999998 l 6.123233995736766e-17,-1.0 l 5.053215498074303e-16,-1.0 l 5.053215498074303e-16,-1.0000000000000004 l 6.123233995736766e-17,-1.0 l 6.123233995736766e-17,-1.0 l 6.123233995736766e-17,-1.0 l 6.123233995736766e-17,-1.0 l 6.123233995736766e-17,-1.0 l 6.123233995736766e-17,-1.0 l 6.123233995736771e-17,-1.0000000000000009 l -1.0,-6.123233995736766e-17 l -1.0,-6.123233995736766e-17 l -0.9999999999999996,-6.123233995736764e-17 l -1.0,-6.123233995736766e-17 l -1.0,-6.123233995736766e-17 l -1.0,-6.123233995736766e-17 l -1.0,-6.123233995736766e-17 l -1.0,-6.123233995736766e-17 l -1.0,-6.123233995736766e-17 l -1.0,-6.123233995736766e-17 l -1.0000000000000004,-6.123233995736769e-17 l -1.0,-6.123233995736766e-17 l -1.0,-6.123233995736766e-17 l -6.123233995736771e-17,1.0000000000000009 l -6.123233995736766e-17,1.0 l -6.123233995736766e-17,1.0 l -6.123233995736766e-17,1.0 l -6.123233995736766e-17,1.0 l -6.123233995736766e-17,1.0 l -6.123233995736766e-17,1.0 l 3.82856869892695e-16,0.9999999999999996 l 3.82856869892695e-16,0.9999999999999993 l -6.123233995736762e-17,0.9999999999999993 l -6.123233995736766e-17,1.0 l -6.123233995736766e-17,1.0 l 1.0,6.123233995736766e-17 l 1.0,6.123233995736766e-17 l 0.9999999999999991,2.8327694488239893e-16 l 0.9999999999999991,2.8327694488239893e-16 l 0.9999999999999991,2.8327694488239893e-16 l 1.000000000000001,3.6139460187578685e-15 l 2.281678389207681e-15,-1.0000000000000044 " /><path d="M 1.9999999999999998,1.0000000000000004 l 1.0,5.053215498074303e-16 l 1.0,5.053215498074303e-16 l 1.0000000000000004,5.053215498074303e-16 l 6.123233995736766e-17,-1.0 l 5.053215498074303e-16,-1.0 l 5.053215498074303e-16,-1.0000000000000004 l 6.123233995736766e-17,-1.0 l 6.123233995736766e-17,-1.0 l 6.123233995736766e-17,-1.0 l 6.123233995736766e-17,-1.0 l 6.123233995736766e-17,-1.0 l 6.123233995736766e-17,-1.0 l -1.0,-6.123233995736766e-17 l -0.9999999999999996,-6.123233995736764e-17 l -1.0,-6.123233995736766e-17 l -1.0,-6.123233995736766e-17 l -1.0,-6.123233995736766e-17 l -1.0,-6.123233995736766e-17 l -1.0,-6.123233995736766e-17 l -1.0,-6.123233995736766e-17 l -1.0,-6.123233995736766e-17 l -1.0000000000000004,-6.123233995736769e-17 l -1.0,-6.123233995736766e-17 l -6.123233995736766e-17,1.0 l -6.123233995736766e-17,1.0 l -6.123233995736766e-17,1.0 l -6.123233995736766e-17,1.0 l -6.123233995736766e-17,1.0 l -6.123233995736766e-17,1.0 l 3.82856869892695e-16,0.9999999999999996 l 3.82856869892695e-16,0.9999999999999993 l -6.123233995736762e-17,0.9999999999999993 l -6.123233995736766e-17,1.0 l 1.0,6.123233995736766e-17 l 0.9999999999999991,2.8327694488239893e-16 l 0.9999999999999991,2.8327694488239893e-16 l 0.9999999999999991,2.8327694488239893e-16 " /><path d="M 2.0,4.898587196589413e-16 l 1.0,5.053215498074303e-16 l 1.0,5.053215498074303e-16 l 5.053215498074303e-16,-1.0 l 5.053215498074303e-16,-1.0000000000000004 l 6.123233995736766e-17,-1.0 l 6.123233995736766e-17,-1.0 l 6.123233995736766e-17,-1.0 l 6.123233995736766e-17,-1.0 l 6.123233995736766e-17,-1.0 l -0.9999999999999996,-6.123233995736764e-17 l -1.0,-6.123233995736766e-17 l -1.0,-6.123233995736766e-17 l -1.0,-6.123233995736766e-17 l -1.0,-6.123233995736766e-17 l -1.0,-6.123233995736766e-17 l -1.0,-6.123233995736766e-17 l -1.0,-6.123233995736766e-17 l -1.0000000000000004,-6.123233995736769e-17 l -6.123233995736766e-17,1.0 l -6.123233995736766e-17,1.0 l -6.123233995736766e-17,1.0 l -6.123233995736766e-17,1.0 l -6.123233995736766e-17,1.0 l 3.82856869892695e-16,0.9999999999999996 l 3.82856869892695e-16,0.9999999999999993 l -6.123233995736762e-17,0.9999999999999993 l 0.9999999999999991,2.8327694488239893e-16 l 0.9999999999999991,2.8327694488239893e-16 l 0.9999999999999991,2.8327694488239893e-16 " /><path d="M 2.0,-0.9999999999999996 l 1.0,5.053215498074303e-16 l 5.053215498074303e-16,-1.0000000000000004 l 6.123233995736766e-17,-1.0 l 6.123233995736766e-17,-1.0 l 6.123233995736766e-17,-1.0 l 6.123233995736766e-17,-1.0 l -1.0,-6.123233995736766e-17 l -1.0,-6.123233995736766e-17 l -1.0,-6.123233995736766e-17 l -1.0,-6.123233995736766e-17 l -1.0,-6.123233995736766e-17 l -1.0,-6.123233995736766e-17 l -1.0,-6.123233995736766e-17 l -6.123233995736766e-17,1.0 l -6.123233995736766e-17,1.0 l -6.123233995736766e-17,1.0 l -6.123233995736766e-17,1.0 l 3.82856869892695e-16,0.9999999999999996 l 3.82856869892695e-16,0.9999999999999993 l 0.9999999999999991,2.8327694488239893e-16 l 0.9999999999999991,2.8327694488239893e-16 " /><path d="M 2.0000000000000004,-1.9999999999999993 l 6.123233995736766e-17,-1.0 l 6.123233995736766e-17,-1.0 l 6.123233995736766e-17,-1.0 l -1.0,-6.123233995736766e-17 l -1.0,-6.123233995736766e-17 l -1.0,-6.123233995736766e-17 l -1.0,-6.123233995736766e-17 l -1.0,-6.123233995736766e-17 l -6.123233995736766e-17,1.0 l -6.123233995736766e-17,1.0 l -6.123233995736766e-17,1.0 l 3.82856869892695e-16,0.9999999999999996 l 0.9999999999999991,2.8327694488239893e-16 " /><path d="M 1.0000000000000007,-1.9999999999999998 l 6.123233995736766e-17,-1.0 l 6.123233995736766e-17,-1.0 l -1.0,-6.123233995736766e-17 l -1.0,-6.123233995736766e-17 l -1.0,-6.123233995736766e-17 l -6.123233995736766e-17,1.0 l -6.123233995736766e-17,1.0 " /><path d="M 1.2246467991473532e-16,-2.0 l 6.123233995736766e-17,-1.0 l -1.0,-6.123233995736766e-17 l -6.123233995736766e-17,1.0 " /></g><g stroke="rgb(0,128,0)" stroke-opacity="1.0" fill-opacity="0.0" stroke-width="0.1"><g fill-opacity="0.0"><g fill="rgb(255,0,0)" fill-opacity="1.0"><path d="M 1.0100000000000005,-1.9999999999999998 c 1.3527075021963559e-18,-5.522847498307935e-3 -4.477152501692062e-3,-1.0000000000000002e-2 -9.999999999999997e-3 -1.0000000000000002e-2c -5.522847498307935e-3,-1.6908843777454448e-18 -1.0000000000000002e-2,4.477152501692061e-3 -1.0000000000000002e-2 9.999999999999995e-3c -2.0290612532945338e-18,5.522847498307935e-3 4.477152501692061e-3,1.0000000000000002e-2 9.999999999999993e-3 1.0000000000000002e-2c 5.522847498307935e-3,2.3672381288436228e-18 1.0000000000000002e-2,-4.47715250169206e-3 1.0000000000000004e-2 -9.999999999999995e-3Z" /></g><g fill="rgb(255,0,0)" fill-opacity="1.0"><path d="M 2.0100000000000002,-1.9999999999999996 c 1.3527075021963559e-18,-5.522847498307935e-3 -4.477152501692062e-3,-1.0000000000000002e-2 -9.999999999999997e-3 -1.0000000000000002e-2c -5.522847498307935e-3,-1.6908843777454448e-18 -1.0000000000000002e-2,4.477152501692061e-3 -1.0000000000000002e-2 9.999999999999995e-3c -2.0290612532945338e-18,5.522847498307935e-3 4.477152501692061e-3,1.0000000000000002e-2 9.999999999999993e-3 1.0000000000000002e-2c 5.522847498307935e-3,2.3672381288436228e-18 1.0000000000000002e-2,-4.47715250169206e-3 1.0000000000000004e-2 -9.999999999999995e-3Z" /></g><g fill="rgb(255,0,0)" fill-opacity="1.0"><path d="M 2.0100000000000002,-0.9999999999999996 c 1.3527075021963559e-18,-5.522847498307935e-3 -4.477152501692062e-3,-1.0000000000000002e-2 -9.999999999999997e-3 -1.0000000000000002e-2c -5.522847498307935e-3,-1.6908843777454448e-18 -1.0000000000000002e-2,4.477152501692061e-3 -1.0000000000000002e-2 9.999999999999995e-3c -2.0290612532945338e-18,5.522847498307935e-3 4.477152501692061e-3,1.0000000000000002e-2 9.999999999999993e-3 1.0000000000000002e-2c 5.522847498307935e-3,2.3672381288436228e-18 1.0000000000000002e-2,-4.47715250169206e-3 1.0000000000000004e-2 -9.999999999999995e-3Z" /></g><g fill="rgb(255,0,0)" fill-opacity="1.0"><path d="M 2.01,4.92308013257236e-16 c 1.3527075021963559e-18,-5.522847498307935e-3 -4.477152501692062e-3,-1.0000000000000002e-2 -9.999999999999997e-3 -1.0000000000000002e-2c -5.522847498307935e-3,-1.6908843777454448e-18 -1.0000000000000002e-2,4.477152501692061e-3 -1.0000000000000002e-2 9.999999999999995e-3c -2.0290612532945338e-18,5.522847498307935e-3 4.477152501692061e-3,1.0000000000000002e-2 9.999999999999993e-3 1.0000000000000002e-2c 5.522847498307935e-3,2.3672381288436228e-18 1.0000000000000002e-2,-4.47715250169206e-3 1.0000000000000004e-2 -9.999999999999995e-3Z" /></g><path d="M 2.0000000000000004,-0.9999999999999996 l -1.0,-2.4492935982947064e-16 l 2.4492935982947064e-16,-1.0 " /><path d="M 0.0,0.0 l 4.898587196589413e-16,-2.0 " /></g><g fill-opacity="0.0"><g fill="rgb(255,0,0)" fill-opacity="1.0"><path d="M 1.9999999999999998,1.0100000000000005 c 5.522847498307935e-3,1.0145306266472667e-18 1.0e-2,-4.477152501692063e-3 1.0000000000000002e-2 -9.999999999999997e-3c 1.3527075021963557e-18,-5.522847498307935e-3 -4.477152501692062e-3,-1.0e-2 -9.999999999999995e-3 -1.0000000000000002e-2c -5.522847498307935e-3,-1.6908843777454446e-18 -1.0e-2,4.477152501692062e-3 -1.0000000000000002e-2 9.999999999999993e-3c -2.0290612532945338e-18,5.522847498307935e-3 4.477152501692061e-3,1.0e-2 9.999999999999995e-3 1.0000000000000004e-2Z" /></g><g fill="rgb(255,0,0)" fill-opacity="1.0"><path d="M 1.9999999999999996,2.0100000000000002 c 5.522847498307935e-3,1.0145306266472667e-18 1.0e-2,-4.477152501692063e-3 1.0000000000000002e-2 -9.999999999999997e-3c 1.3527075021963557e-18,-5.522847498307935e-3 -4.477152501692062e-3,-1.0e-2 -9.999999999999995e-3 -1.0000000000000002e-2c -5.522847498307935e-3,-1.6908843777454446e-18 -1.0e-2,4.477152501692062e-3 -1.0000000000000002e-2 9.999999999999993e-3c -2.0290612532945338e-18,5.522847498307935e-3 4.477152501692061e-3,1.0e-2 9.999999999999995e-3 1.0000000000000004e-2Z" /></g><g fill="rgb(255,0,0)" fill-opacity="1.0"><path d="M 0.9999999999999997,2.01 c 5.522847498307935e-3,1.0145306266472667e-18 1.0e-2,-4.477152501692063e-3 1.0000000000000002e-2 -9.999999999999997e-3c 1.3527075021963557e-18,-5.522847498307935e-3 -4.477152501692062e-3,-1.0e-2 -9.999999999999995e-3 -1.0000000000000002e-2c -5.522847498307935e-3,-1.6908843777454446e-18 -1.0e-2,4.477152501692062e-3 -1.0000000000000002e-2 9.999999999999993e-3c -2.0290612532945338e-18,5.522847498307935e-3 4.477152501692061e-3,1.0e-2 9.999999999999995e-3 1.0000000000000004e-2Z" /></g><g fill="rgb(255,0,0)" fill-opacity="1.0"><path d="M -3.6923100994292695e-16,2.01 c 5.522847498307935e-3,1.0145306266472667e-18 1.0e-2,-4.477152501692063e-3 1.0000000000000002e-2 -9.999999999999997e-3c 1.3527075021963557e-18,-5.522847498307935e-3 -4.477152501692062e-3,-1.0e-2 -9.999999999999995e-3 -1.0000000000000002e-2c -5.522847498307935e-3,-1.6908843777454446e-18 -1.0e-2,4.477152501692062e-3 -1.0000000000000002e-2 9.999999999999993e-3c -2.0290612532945338e-18,5.522847498307935e-3 4.477152501692061e-3,1.0e-2 9.999999999999995e-3 1.0000000000000004e-2Z" /></g><path d="M 0.9999999999999997,2.0 l 1.8369701987210297e-16,-1.0 l 1.0,1.8369701987210297e-16 " /><path d="M 0.0,0.0 l 2.0,3.6739403974420594e-16 " /></g><g fill-opacity="0.0"><g fill="rgb(255,0,0)" fill-opacity="1.0"><path d="M -1.0100000000000002,1.9999999999999998 c -6.763537510981779e-19,5.522847498307935e-3 4.477152501692064e-3,1.0e-2 9.999999999999997e-3 1.0000000000000002e-2c 5.522847498307935e-3,1.0145306266472669e-18 1.0e-2,-4.477152501692063e-3 1.0000000000000002e-2 -9.999999999999995e-3c 1.3527075021963559e-18,-5.522847498307935e-3 -4.477152501692063e-3,-1.0e-2 -9.999999999999993e-3 -1.0000000000000002e-2c -5.522847498307935e-3,-1.6908843777454448e-18 -1.0e-2,4.477152501692062e-3 -1.0000000000000004e-2 9.999999999999995e-3Z" /></g><g fill="rgb(255,0,0)" fill-opacity="1.0"><path d="M -2.0100000000000002,1.9999999999999998 c -6.763537510981779e-19,5.522847498307935e-3 4.477152501692064e-3,1.0e-2 9.999999999999997e-3 1.0000000000000002e-2c 5.522847498307935e-3,1.0145306266472669e-18 1.0e-2,-4.477152501692063e-3 1.0000000000000002e-2 -9.999999999999995e-3c 1.3527075021963559e-18,-5.522847498307935e-3 -4.477152501692063e-3,-1.0e-2 -9.999999999999993e-3 -1.0000000000000002e-2c -5.522847498307935e-3,-1.6908843777454448e-18 -1.0e-2,4.477152501692062e-3 -1.0000000000000004e-2 9.999999999999995e-3Z" /></g><g fill="rgb(255,0,0)" fill-opacity="1.0"><path d="M -2.01,0.9999999999999998 c -6.763537510981779e-19,5.522847498307935e-3 4.477152501692064e-3,1.0e-2 9.999999999999997e-3 1.0000000000000002e-2c 5.522847498307935e-3,1.0145306266472669e-18 1.0e-2,-4.477152501692063e-3 1.0000000000000002e-2 -9.999999999999995e-3c 1.3527075021963559e-18,-5.522847498307935e-3 -4.477152501692063e-3,-1.0e-2 -9.999999999999993e-3 -1.0000000000000002e-2c -5.522847498307935e-3,-1.6908843777454448e-18 -1.0e-2,4.477152501692062e-3 -1.0000000000000004e-2 9.999999999999995e-3Z" /></g><g fill="rgb(255,0,0)" fill-opacity="1.0"><path d="M -2.01,-2.46154006628618e-16 c -6.763537510981779e-19,5.522847498307935e-3 4.477152501692064e-3,1.0e-2 9.999999999999997e-3 1.0000000000000002e-2c 5.522847498307935e-3,1.0145306266472669e-18 1.0e-2,-4.477152501692063e-3 1.0000000000000002e-2 -9.999999999999995e-3c 1.3527075021963559e-18,-5.522847498307935e-3 -4.477152501692063e-3,-1.0e-2 -9.999999999999993e-3 -1.0000000000000002e-2c -5.522847498307935e-3,-1.6908843777454448e-18 -1.0e-2,4.477152501692062e-3 -1.0000000000000004e-2 9.999999999999995e-3Z" /></g><path d="M -2.0,0.9999999999999998 l 1.0,1.2246467991473532e-16 l -1.2246467991473532e-16,1.0 " /><path d="M 0.0,0.0 l -2.4492935982947064e-16,2.0 " /></g><g fill-opacity="0.0"><g fill="rgb(255,0,0)" fill-opacity="1.0"><path d="M -2.0,-1.0100000000000002 c -5.522847498307935e-3,-3.3817687554908897e-19 -1.0e-2,4.477152501692064e-3 -1.0e-2 9.999999999999998e-3c -6.763537510981779e-19,5.522847498307935e-3 4.477152501692063e-3,1.0e-2 9.999999999999997e-3 1.0e-2c 5.522847498307935e-3,1.0145306266472669e-18 1.0e-2,-4.477152501692063e-3 1.0e-2 -9.999999999999995e-3c 1.3527075021963559e-18,-5.522847498307935e-3 -4.477152501692062e-3,-1.0e-2 -9.999999999999997e-3 -1.0000000000000002e-2Z" /></g><g fill="rgb(255,0,0)" fill-opacity="1.0"><path d="M -1.9999999999999998,-2.01 c -5.522847498307935e-3,-3.3817687554908897e-19 -1.0e-2,4.477152501692064e-3 -1.0e-2 9.999999999999998e-3c -6.763537510981779e-19,5.522847498307935e-3 4.477152501692063e-3,1.0e-2 9.999999999999997e-3 1.0e-2c 5.522847498307935e-3,1.0145306266472669e-18 1.0e-2,-4.477152501692063e-3 1.0e-2 -9.999999999999995e-3c 1.3527075021963559e-18,-5.522847498307935e-3 -4.477152501692062e-3,-1.0e-2 -9.999999999999997e-3 -1.0000000000000002e-2Z" /></g><g fill="rgb(255,0,0)" fill-opacity="1.0"><path d="M -0.9999999999999999,-2.01 c -5.522847498307935e-3,-3.3817687554908897e-19 -1.0e-2,4.477152501692064e-3 -1.0e-2 9.999999999999998e-3c -6.763537510981779e-19,5.522847498307935e-3 4.477152501692063e-3,1.0e-2 9.999999999999997e-3 1.0e-2c 5.522847498307935e-3,1.0145306266472669e-18 1.0e-2,-4.477152501692063e-3 1.0e-2 -9.999999999999995e-3c 1.3527075021963559e-18,-5.522847498307935e-3 -4.477152501692062e-3,-1.0e-2 -9.999999999999997e-3 -1.0000000000000002e-2Z" /></g><g fill="rgb(255,0,0)" fill-opacity="1.0"><path d="M 1.23077003314309e-16,-2.01 c -5.522847498307935e-3,-3.3817687554908897e-19 -1.0e-2,4.477152501692064e-3 -1.0e-2 9.999999999999998e-3c -6.763537510981779e-19,5.522847498307935e-3 4.477152501692063e-3,1.0e-2 9.999999999999997e-3 1.0e-2c 5.522847498307935e-3,1.0145306266472669e-18 1.0e-2,-4.477152501692063e-3 1.0e-2 -9.999999999999995e-3c 1.3527075021963559e-18,-5.522847498307935e-3 -4.477152501692062e-3,-1.0e-2 -9.999999999999997e-3 -1.0000000000000002e-2Z" /></g><path d="M -0.9999999999999999,-2.0 l -6.123233995736766e-17,1.0 l -1.0,-6.123233995736766e-17 " /><path d="M 0.0,0.0 l -2.0,-1.2246467991473532e-16 " /></g></g></g></g></g></svg>